<svg version="1.1" id="Layer_1" xmlns="http://www.w3.org/2000/svg" xmlns:xlink="http://www.w3.org/1999/xlink" x="0px" y="0px"
	 width="100%" viewBox="0 0 976 736" enable-background="new 0 0 976 736" xml:space="preserve">
<path fill="#000000" opacity="1.000000" stroke="none" 
	d="
M1.000000,253.416656 
	C3.143509,251.596695 5.202586,250.371109 7.866723,252.135834 
	C9.785999,253.407166 12.178474,252.872803 14.220882,252.512955 
	C17.063313,252.012161 19.472553,251.999481 21.483515,254.363190 
	C21.887997,254.838638 22.745100,255.506210 23.098814,255.362061 
	C29.496639,252.754761 34.777946,257.132904 40.590324,258.077515 
	C41.943829,258.297485 43.243656,258.500916 44.354889,257.458313 
	C47.597813,254.415741 50.630230,255.124359 53.547367,257.959717 
	C55.876705,260.223755 58.832954,260.261200 61.510033,259.394348 
	C63.563442,258.729401 65.349007,258.860718 67.240341,259.342957 
	C69.375877,254.207092 70.537224,253.590042 75.138458,256.330811 
	C78.358749,258.248993 80.460732,257.142242 82.541794,254.861618 
	C85.021439,252.144196 87.489868,250.817978 90.315231,254.448792 
	C91.367096,255.800568 92.915985,255.786819 94.446289,255.554871 
	C95.760231,255.355713 97.057777,255.013077 98.377121,254.890610 
	C108.087296,253.989243 111.720657,250.879608 114.394585,241.130981 
	C114.612076,240.338058 114.806015,238.954025 115.200256,238.882080 
	C120.972458,237.828476 121.597374,231.891281 125.038635,228.224533 
	C130.098572,231.859024 130.404816,236.790787 129.815353,241.929092 
	C139.935242,245.381897 148.979370,241.613983 152.668335,232.063675 
	C154.986908,226.061127 159.968536,226.929901 164.373138,227.135147 
	C167.487350,227.280273 170.160278,226.335663 173.042450,225.922012 
	C181.341660,224.730865 189.638641,221.207886 198.136490,224.659973 
	C200.373779,225.568863 201.606201,224.395660 202.992264,223.229462 
	C205.824905,220.846115 208.959366,220.174866 212.626770,220.845016 
	C216.606064,221.572144 219.113922,218.244186 221.948135,216.423569 
	C224.388092,214.856277 223.049652,211.945038 221.808380,209.638199 
	C221.261902,208.622635 220.845901,207.496826 220.594772,206.371094 
	C220.139709,204.331299 218.916412,201.844391 221.410950,200.534180 
	C223.631317,199.367966 224.436996,201.912903 225.607788,203.148590 
	C227.682739,205.338593 230.372620,207.143204 233.078369,205.919556 
	C235.597168,204.780457 237.000900,201.966354 236.311813,198.742371 
	C236.143433,197.954620 235.910919,196.718887 236.316025,196.340958 
	C240.875610,192.087021 239.606842,187.823273 236.830505,183.246445 
	C236.073151,181.997940 235.695435,179.927841 237.850204,178.956680 
	C238.923584,178.472931 239.322876,177.707733 239.131012,176.567810 
	C238.758804,174.356445 238.422821,171.618973 241.171356,171.224091 
	C244.014374,170.815659 247.159775,171.679260 249.156998,174.072815 
	C252.924744,178.588287 252.895630,178.726089 255.920578,173.965027 
	C257.234039,171.897751 258.627563,171.088531 260.787964,172.557831 
	C267.436340,177.079407 275.182434,173.519501 282.280579,175.509811 
	C287.560455,176.990280 293.847137,175.029068 297.818695,180.680817 
	C298.613403,181.811737 300.171326,182.034317 301.460999,181.225098 
	C303.041901,180.233139 303.478516,178.479416 303.330170,176.839737 
	C303.059692,173.851074 302.646515,170.912567 304.020172,167.858963 
	C309.058014,168.370483 308.933746,172.155197 308.919769,175.456039 
	C308.885071,183.648575 311.689026,191.023346 316.340607,197.357254 
	C318.966003,200.932205 323.256378,198.733353 326.531342,196.706863 
	C327.796814,198.026871 326.363739,199.018234 326.473877,200.131027 
	C326.839630,203.826233 330.459015,207.950775 333.259369,207.748642 
	C335.673157,207.574402 339.231140,200.931824 338.281128,197.522064 
	C337.088043,193.239655 338.226135,190.074203 341.928558,187.340408 
	C345.419281,190.228058 350.026611,191.080826 353.912262,193.482010 
	C355.484558,194.453644 357.135590,195.296860 358.277008,196.726791 
	C360.989807,200.125412 363.179962,203.759506 367.954498,205.125778 
	C374.877991,207.106995 375.180969,215.332047 380.331085,219.334595 
	C388.809082,225.923462 396.049469,233.934830 406.180237,238.591888 
	C411.141907,240.872742 416.046753,243.212875 421.189758,245.074905 
	C422.253937,245.460190 423.203003,246.242355 424.110260,246.961319 
	C425.148041,247.783707 426.376495,248.713547 425.593628,250.266357 
	C424.772552,251.894852 423.182800,251.425644 422.079559,250.843582 
	C415.234772,247.232162 407.345856,246.967010 400.334991,243.936600 
	C395.281189,241.752136 391.356720,237.621140 386.153412,235.686234 
	C377.977905,232.646149 371.946960,226.310455 364.785828,221.708893 
	C362.191467,220.041809 359.643646,220.222000 359.458527,223.122086 
	C359.084259,228.985046 354.827911,230.184784 350.930634,230.110352 
	C344.402222,229.985657 338.120636,233.709869 331.433319,231.057495 
	C330.275024,230.598083 328.402344,231.939880 326.548309,232.552567 
	C324.995605,229.004791 321.706848,228.005966 318.197266,227.458008 
	C316.376740,227.173782 314.958069,226.240341 313.356598,225.402512 
	C307.420074,222.296753 301.107941,220.568970 294.359924,223.145264 
	C292.652466,223.797150 291.944672,224.629333 291.431641,226.565201 
	C289.622314,233.392426 279.335480,241.728806 271.717804,236.010941 
	C269.424408,234.289505 266.772095,234.437637 264.191406,235.941757 
	C259.424622,238.720032 254.211166,240.396423 249.432114,243.565994 
	C245.175156,246.389252 237.915298,249.229828 231.785156,244.481613 
	C229.744415,242.900925 227.791763,242.046799 225.021912,243.756119 
	C222.657120,245.215454 219.500580,245.027908 216.739365,244.636734 
	C212.730148,244.068771 209.520706,245.105865 206.884659,248.101761 
	C204.475174,250.840134 201.609161,252.596344 197.825470,252.696472 
	C195.049606,252.769928 193.243820,254.120178 192.372375,256.928436 
	C190.358765,263.417236 189.797531,263.614532 183.482315,260.686035 
	C182.054977,264.258209 179.410858,264.610352 176.126114,263.191681 
	C173.632874,262.114868 171.225601,262.453979 169.125946,264.222290 
	C168.213669,264.990601 168.317566,265.992340 168.935577,266.916992 
	C170.481934,269.230621 172.876297,269.606415 175.416504,270.051117 
	C177.877213,270.481812 179.300400,268.190613 181.893494,268.315796 
	C184.869629,273.553192 189.940796,276.041534 195.560257,278.469849 
	C200.632660,280.661774 207.512772,278.696930 212.187881,285.310455 
	C203.128769,284.656433 195.665405,282.672668 188.293274,280.671692 
	C177.903641,277.851654 167.853149,273.929352 157.911606,269.760925 
	C150.734879,266.751740 143.199387,265.878387 135.445068,266.285370 
	C121.705521,267.006470 107.969002,266.859833 94.214760,266.322327 
	C82.972267,265.883026 71.664131,266.666901 60.460796,265.858917 
	C54.082787,265.398865 47.691681,264.440491 41.269501,263.935516 
	C37.297550,263.623169 33.406441,263.362122 29.394093,263.440063 
	C25.449297,263.516785 21.543509,261.433716 17.496721,260.622467 
	C12.272779,259.575226 7.070205,258.594330 1.384130,258.060364 
	C1.000000,256.611115 1.000000,255.222214 1.000000,253.416656 
z"/>
<path fill="#000000" opacity="1.000000" stroke="none" 
	d="
M633.531372,1.000000 
	C632.358765,2.019100 630.516724,1.998924 628.685120,2.020220 
	C601.592224,2.335222 574.499695,2.830668 547.406189,2.893284 
	C531.327148,2.930444 515.246155,2.297794 499.166992,1.924138 
	C497.688904,1.889789 496.217926,1.548703 494.371826,1.175025 
	C540.354248,1.000000 586.708435,1.000000 633.531372,1.000000 
z"/>
<path fill="#000000" opacity="1.000000" stroke="none" 
	d="
M337.531342,1.000000 
	C336.327667,1.954004 334.479309,1.925464 332.647278,1.925510 
	C303.655151,1.926238 274.663025,1.925701 245.670929,1.889672 
	C244.359161,1.888042 243.047821,1.548169 241.368134,1.182919 
	C273.020905,1.000000 305.041779,1.000000 337.531342,1.000000 
z"/>
<path fill="#000000" opacity="1.000000" stroke="none" 
	d="
M731.531372,1.000001 
	C730.713684,1.285882 729.428284,1.816098 728.140991,1.820701 
	C710.986816,1.882034 693.832458,1.878427 676.678162,1.853226 
	C675.699829,1.851789 674.722107,1.523763 673.372070,1.173868 
	C692.354248,1.000000 711.708435,1.000000 731.531372,1.000001 
z"/>
<path fill="#000000" opacity="1.000000" stroke="none" 
	d="
M381.531372,1.000000 
	C374.607941,2.860066 367.173065,2.058166 359.369934,1.178938 
	C366.354248,1.000000 373.708496,1.000000 381.531372,1.000000 
z"/>
<path fill="#000000" opacity="1.000000" stroke="none" 
	d="
M231.531586,1.000000 
	C225.607681,2.660450 219.175995,2.298795 212.366684,1.187524 
	C218.354401,1.000000 224.708786,1.000000 231.531586,1.000000 
z"/>
<path fill="#000000" opacity="1.000000" stroke="none" 
	d="
M881.109558,384.802795 
	C878.586487,385.585175 878.454651,387.132233 879.006531,389.192169 
	C879.618347,391.476105 878.693420,393.069183 875.932678,393.628510 
	C873.864624,391.001160 871.592102,388.506287 870.464661,385.068573 
	C868.387146,378.734100 864.692871,372.932251 860.287964,368.365143 
	C856.448975,364.384888 851.666748,361.414490 849.367065,356.013092 
	C848.553772,354.102936 846.051147,354.784668 844.329346,353.439148 
	C846.026917,348.921265 842.568420,346.773010 839.754395,344.298645 
	C838.770752,343.433655 837.776306,342.218628 836.294739,342.994995 
	C834.839539,343.757507 834.285339,345.325012 834.371155,346.824921 
	C834.515442,349.345337 835.271179,351.904419 837.029785,353.669800 
	C842.060791,358.720001 842.111450,365.565308 843.726562,371.763397 
	C845.821655,379.803192 845.882996,388.011841 844.783203,396.341064 
	C844.309448,399.929077 846.007019,403.790558 846.729980,407.450592 
	C847.974548,413.750061 843.688232,419.317963 845.541992,425.493286 
	C846.025269,427.103180 844.365356,428.717377 842.485291,428.753326 
	C840.575623,428.789886 840.635315,426.893982 839.994141,425.567139 
	C835.116821,415.472534 834.791748,404.045837 830.050049,393.735565 
	C826.981567,387.063416 822.571533,380.885437 820.860535,373.519928 
	C820.084290,370.178314 817.282898,367.684570 815.469666,364.852295 
	C813.358215,361.554352 812.405518,358.362885 812.439270,354.780243 
	C812.465698,351.972504 811.401001,350.447815 809.230347,348.662384 
	C805.755005,345.803864 805.966675,340.580414 802.880981,337.103149 
	C800.846558,334.810516 799.323853,334.815704 796.089905,336.434540 
	C801.045288,338.383789 800.657227,342.456024 800.206543,345.580719 
	C798.964172,354.194519 801.691589,362.196808 802.900208,370.438477 
	C803.253845,372.849884 803.441589,375.297119 802.311462,378.004700 
	C799.498169,376.347198 799.003052,373.835327 799.010803,371.448090 
	C799.039062,362.785797 798.193237,354.216370 797.165833,345.628418 
	C796.777466,342.381775 796.573059,339.169739 794.142883,336.926788 
	C789.764587,332.885773 786.794678,327.823822 783.720825,322.200165 
	C781.364929,324.571655 779.967346,326.471985 778.894958,328.747772 
	C777.222473,332.297241 774.829590,332.675049 771.829712,330.126343 
	C769.344177,328.014679 767.655090,324.621399 768.511230,322.159607 
	C770.919739,315.234497 768.283936,308.488861 768.896912,301.699066 
	C769.169495,298.678802 769.233459,295.692261 771.068359,293.122803 
	C772.677734,290.869110 772.043091,288.310455 772.117004,285.860687 
	C772.273682,280.670898 772.302856,275.504028 771.878479,270.293671 
	C771.500122,265.650146 773.148621,261.261444 774.665894,256.723724 
	C776.476868,251.307327 780.566711,247.120895 780.765686,240.465500 
	C780.956116,234.098694 781.678955,227.042358 784.241089,220.762848 
	C785.261353,218.262436 783.910400,216.223953 783.865112,213.976776 
	C783.721008,206.833267 784.510071,199.596573 784.150757,192.578232 
	C783.611938,182.055710 785.299988,170.943085 777.999390,161.312622 
	C775.115540,157.508347 772.761108,152.715836 774.763000,146.582916 
	C777.928467,136.885452 770.501099,123.216240 761.243225,119.191643 
	C759.830322,118.577446 758.651428,119.643425 756.990967,119.205643 
	C756.612610,113.829514 751.799988,110.900345 749.183960,106.582840 
	C745.869385,101.112335 744.093201,95.346375 742.800293,89.320152 
	C740.316040,77.741020 738.196228,66.082886 735.646118,54.519070 
	C734.610840,49.824627 731.584961,48.707150 727.755981,51.647106 
	C718.333618,58.881664 710.964905,68.130760 703.693970,77.402107 
	C700.403809,81.597343 696.948425,85.732712 692.814697,88.924400 
	C687.952332,92.678619 681.846558,91.130508 676.220520,90.613792 
	C662.923767,89.392593 649.940186,86.326683 636.873047,83.735199 
	C632.572937,82.882393 628.248413,84.368950 623.691101,83.748497 
	C614.450500,82.490417 606.376465,81.514687 600.168579,72.476669 
	C593.851562,63.279686 588.611023,53.301579 581.329651,44.762131 
	C573.416565,35.481785 566.538025,25.314062 555.087830,19.450380 
	C550.055603,16.873369 545.565735,17.525146 540.677246,18.135431 
	C538.424622,18.416651 535.489380,19.459339 535.256226,15.901156 
	C535.059265,12.894362 537.894958,12.952984 540.033142,12.870295 
	C545.036499,12.676809 549.459045,9.301263 554.996521,11.265944 
	C563.003662,14.106860 568.609192,19.869341 574.262573,25.541605 
	C585.415527,36.731724 593.768982,50.058006 601.731750,63.576202 
	C605.716553,70.341057 611.649902,73.310677 618.996521,74.038940 
	C623.104919,74.446198 627.318237,75.722656 631.203613,75.441177 
	C635.688904,75.116234 639.415466,76.258591 643.397827,77.525223 
	C645.701965,78.258110 646.647644,76.413513 647.355286,74.645447 
	C648.002686,73.027779 647.967590,70.938622 650.707092,70.458061 
	C651.130005,73.378342 651.840271,76.118034 648.768372,79.278397 
	C658.267212,79.976288 666.514526,82.637726 674.998169,84.143570 
	C677.529907,84.592957 680.059570,85.237633 682.743286,85.362282 
	C686.227600,85.524109 687.768860,84.560112 690.409729,82.089645 
	C693.368652,79.321625 695.311829,75.491600 699.079956,73.397171 
	C706.322998,69.371223 710.095276,62.194897 714.156677,55.396969 
	C717.095886,50.477406 721.881592,47.507332 725.473694,43.230659 
	C727.602661,45.090218 725.115723,46.854443 726.342712,48.226578 
	C726.715027,48.287327 727.070984,48.460896 727.339478,48.371578 
	C730.448975,47.337193 732.747192,43.730721 736.818787,45.741989 
	C742.393494,48.495735 744.671204,53.314831 746.262085,58.981102 
	C748.866882,68.258499 747.841003,77.949593 749.914490,87.243965 
	C750.935547,91.821251 753.081238,96.014389 755.828308,99.788673 
	C758.167236,103.002357 760.499512,100.711349 762.674866,99.261681 
	C764.600464,97.978470 765.631775,94.981171 768.979370,96.080620 
	C770.094543,98.836235 767.505249,101.035774 767.803284,103.785912 
	C770.004517,105.785301 772.315002,107.455444 775.725525,106.400589 
	C777.442261,105.869614 778.969177,106.486572 780.050110,108.080750 
	C782.769409,112.091301 786.545227,111.820122 790.179932,109.968559 
	C792.397827,108.838730 793.889893,108.977547 796.115417,109.982750 
	C800.527527,111.975525 805.081238,111.674522 809.523132,108.160515 
	C810.889160,115.489815 817.734131,114.719658 821.858948,117.788078 
	C823.577576,119.066597 825.610779,119.924576 827.509399,120.958260 
	C829.531006,122.058884 830.623413,123.583054 829.362244,125.833656 
	C828.088623,128.106476 825.566040,128.095245 824.137756,126.900887 
	C820.184448,123.595291 815.129639,123.807678 810.734802,122.020683 
	C809.086731,121.350571 807.169312,121.113892 805.368774,121.088158 
	C798.147644,120.984940 797.137024,122.521568 799.628967,129.665344 
	C803.287170,128.970078 807.270508,126.917328 810.326233,131.461105 
	C807.616150,134.559036 804.431274,135.008896 800.581055,133.598190 
	C799.870850,136.621399 797.326233,139.474777 799.604126,142.033234 
	C802.902893,145.738190 805.613708,140.357117 809.970459,140.440735 
	C806.701355,145.063400 805.262939,149.963745 801.576477,153.419373 
	C799.057922,155.780228 797.504944,158.644867 796.009094,161.598999 
	C795.414246,162.773651 794.737427,164.642609 795.632385,165.403625 
	C799.294678,168.517670 797.064819,171.572968 796.086426,174.787003 
	C795.367676,177.147980 794.952515,179.410706 796.730957,181.874741 
	C797.987732,183.615753 798.396545,186.078491 798.342834,188.503571 
	C798.201294,194.889008 799.980225,200.857101 802.800415,206.545853 
	C804.819092,210.617752 805.460083,215.118317 806.496887,219.461823 
	C807.270691,222.703552 808.590271,223.803421 811.872864,222.143372 
	C813.030212,224.927063 814.011963,227.687164 818.043030,228.086655 
	C816.188416,229.532242 815.074463,230.872925 813.655151,231.416443 
	C809.718750,232.923950 809.537292,236.212311 809.241455,239.574615 
	C808.649841,246.300156 809.029358,252.247971 816.614746,255.570114 
	C818.640320,256.457214 819.698547,257.607300 822.090332,256.582001 
	C825.444824,255.143951 828.058655,255.387161 828.658081,260.230835 
	C829.354370,265.856995 832.693359,266.713348 838.115356,263.101379 
	C840.048218,264.215637 839.098022,266.033508 839.086243,267.547363 
	C839.054932,271.586456 840.503296,273.979095 845.005066,273.439087 
	C845.796387,273.344147 846.763184,273.277954 847.411133,273.632721 
	C860.768738,280.945740 876.068176,282.000671 890.127930,286.979034 
	C897.394714,289.552124 904.736328,292.232269 911.262329,296.432312 
	C913.930237,298.149353 913.952271,302.259827 916.791992,304.392273 
	C912.206482,303.853546 907.504333,303.683594 903.792358,301.183167 
	C895.578735,295.650391 885.709229,295.046326 876.858765,291.454254 
	C870.779968,288.987122 864.595764,286.676514 858.030457,285.546753 
	C855.984375,285.194641 854.771545,285.035461 853.438232,286.927490 
	C851.140564,290.187866 848.467407,290.494781 845.726440,287.181580 
	C844.796509,286.057526 843.503662,285.241791 842.470947,284.192322 
	C841.498169,283.203583 840.456482,282.039825 839.096802,283.086945 
	C837.653564,284.198395 837.836243,285.852173 839.115845,286.999847 
	C842.137512,289.709900 844.804443,293.327423 850.159058,291.566162 
	C849.467468,297.738556 853.425720,301.119171 856.708557,305.090668 
	C864.291931,314.264954 872.898193,322.474976 880.106445,332.069733 
	C890.035278,345.285797 897.471375,359.757324 904.583130,374.454315 
	C906.733276,378.897675 910.262756,383.072571 909.545105,388.751801 
	C909.253967,391.055420 908.572571,392.484467 906.478577,393.313965 
	C904.264343,394.191101 903.015991,393.006836 902.003662,391.293091 
	C900.515808,388.774231 898.286926,386.580261 899.425171,383.094177 
	C899.778137,382.013153 899.338745,380.239349 898.599426,379.309662 
	C895.092346,374.898987 894.329895,368.591980 888.990356,365.464142 
	C887.599060,364.649170 887.105652,363.162323 886.688538,361.720032 
	C883.508911,350.725067 876.194458,342.370850 869.148865,333.782867 
	C864.850586,328.543732 861.367249,322.653320 856.406799,317.924286 
	C851.847412,313.577545 847.137878,309.422791 842.015625,305.746307 
	C840.870850,304.924622 840.034424,303.213715 838.222900,304.444000 
	C837.048218,305.241791 836.108276,306.414032 836.644653,307.803497 
	C837.272888,309.430878 837.634277,311.978485 839.670776,311.996002 
	C844.438416,312.037109 844.989441,314.973389 845.108276,318.589508 
	C845.140564,319.573364 845.105286,320.973999 845.695984,321.459747 
	C850.754272,325.619934 853.396484,331.708771 858.334106,336.201904 
	C864.426331,341.745819 869.694580,348.098053 877.136475,352.088806 
	C879.004883,353.090759 877.005188,355.542023 878.183960,357.198883 
	C881.990234,362.548920 885.089355,368.036011 886.492920,374.787292 
	C887.301514,378.677002 891.908813,381.436462 893.494629,385.923523 
	C894.968384,390.093506 892.982666,393.747467 893.515198,397.595062 
	C893.844727,399.975922 895.559875,402.284180 893.763977,404.724823 
	C893.169312,405.533020 892.541626,406.334991 891.288208,406.165649 
	C889.923950,405.582397 890.006958,404.425934 890.313538,403.246002 
	C891.264160,399.586578 890.274292,396.039520 887.101990,394.593964 
	C882.540161,392.515198 883.837158,387.754669 881.109558,384.802795 
M823.088318,266.173950 
	C825.921570,268.474518 826.598572,266.521210 827.406982,263.944885 
	C825.062927,263.251465 822.977905,262.634644 820.728088,261.969116 
	C820.611267,262.846008 820.331421,263.479370 820.530640,263.726379 
	C821.131775,264.471802 821.919067,265.067169 823.088318,266.173950 
z"/>
<path fill="#000000" opacity="1.000000" stroke="none" 
	d="
M837.880981,495.909698 
	C845.065247,498.352600 849.944275,503.024017 854.672485,508.321014 
	C857.836060,511.865082 858.503845,516.380249 861.050659,519.945251 
	C868.695068,530.645630 867.405579,542.260315 864.888428,553.981140 
	C864.082336,557.734619 862.235291,560.426147 857.740601,561.799133 
	C852.169922,563.500854 847.753845,568.292419 841.482056,568.822815 
	C837.096436,569.193604 832.737549,569.717285 828.363037,567.727844 
	C829.269775,564.662231 830.858154,563.441223 833.239929,563.184814 
	C834.414185,564.967468 831.693909,565.022522 832.577820,566.655212 
	C836.765869,565.750000 841.505188,566.877441 845.351074,564.114807 
	C848.967834,561.516785 852.337830,558.554321 855.663940,555.581604 
	C857.348572,554.075928 857.396729,551.917236 856.280518,550.071350 
	C854.477539,547.090027 855.115417,544.175903 856.539001,541.525024 
	C859.699707,535.639343 858.196289,530.391846 854.953857,525.218262 
	C854.428040,524.379211 853.840454,523.533630 853.537170,522.607300 
	C850.336243,512.832458 843.932373,505.850555 835.036682,500.905212 
	C833.193176,499.880341 831.433960,498.403259 831.925537,495.757690 
	C833.833374,494.041809 835.678589,495.100220 837.880981,495.909698 
z"/>
<path fill="#000000" opacity="1.000000" stroke="none" 
	d="
M41.252834,423.735474 
	C42.842934,423.858032 44.114658,423.656708 45.144440,424.065277 
	C55.817326,428.299438 67.425987,427.757202 78.345055,430.660187 
	C82.782043,431.839783 87.147766,433.288727 91.540535,434.632690 
	C93.039024,435.091156 94.603813,435.733063 93.915138,437.684540 
	C93.325958,439.354034 91.834702,438.947205 90.519653,438.514618 
	C90.204102,438.410828 89.876396,438.336304 89.572517,438.205841 
	C79.340752,433.812347 68.186073,433.667633 57.541332,431.202972 
	C47.260841,428.822632 37.089367,425.966248 26.893635,423.230896 
	C25.421436,422.835907 23.536379,422.735107 22.827799,419.819244 
	C29.106531,421.171509 34.964336,422.433136 41.252834,423.735474 
z"/>
<path fill="#000000" opacity="1.000000" stroke="none" 
	d="
M163.060852,409.459045 
	C168.223297,408.194824 172.986313,408.089966 177.630829,409.832062 
	C183.368378,411.984100 189.492783,412.941711 195.073914,415.587067 
	C196.286591,416.161865 197.625046,416.392944 197.835297,418.375793 
	C196.019669,419.693390 194.385147,418.726410 192.537567,418.020905 
	C184.987396,415.137939 177.600082,411.623383 169.170563,412.021423 
	C163.585358,412.285156 160.559555,414.745544 158.528046,419.280426 
	C157.386215,421.829376 160.709518,423.105530 158.998962,425.528107 
	C156.073318,424.006836 154.957840,421.179688 155.002213,418.412445 
	C155.078888,413.630646 158.585464,411.231781 163.060852,409.459045 
z"/>
<path fill="#000000" opacity="1.000000" stroke="none" 
	d="
M827.736328,227.948563 
	C828.503479,234.428223 825.673889,236.989380 817.727112,237.124680 
	C817.855652,233.809311 821.618652,234.547546 822.798279,232.401505 
	C823.175903,230.877106 820.029175,231.876801 820.796753,229.953522 
	C821.329956,228.617477 822.429871,228.609055 823.640747,228.531403 
	C824.927063,228.448898 826.193848,228.061966 827.736328,227.948563 
z"/>
<path fill="#000000" opacity="1.000000" stroke="none" 
	d="
M866.017944,396.560211 
	C867.372559,395.239044 868.345703,395.024017 868.359741,397.013672 
	C868.372925,398.875031 867.621399,400.517487 866.257935,402.273834 
	C864.402100,400.372711 864.935425,398.615753 866.017944,396.560211 
z"/>
</svg>