<svg version="1.1" id="Layer_1" xmlns="http://www.w3.org/2000/svg" xmlns:xlink="http://www.w3.org/1999/xlink" x="0px" y="0px"
	 width="100%" viewBox="0 0 749 122" enable-background="new 0 0 749 122" xml:space="preserve">
<path fill="#FEFEFE" opacity="1.000000" stroke="none" 
	d="
M568.000000,123.000000 
	C378.666656,123.000000 189.833328,123.000000 1.000000,123.000000 
	C1.000000,82.333336 1.000000,41.666668 1.000000,1.000000 
	C250.666672,1.000000 500.333344,1.000000 750.000000,1.000000 
	C750.000000,41.666668 750.000000,82.333336 750.000000,123.000000 
	C689.500000,123.000000 629.000000,123.000000 568.000000,123.000000 
M47.966770,30.094698 
	C50.538433,31.302216 53.078510,32.310070 55.532188,28.969141 
	C56.018608,28.672937 56.505032,28.376736 57.532223,28.436785 
	C59.591339,32.462570 62.156086,29.118414 64.684967,29.871830 
	C62.789043,27.906706 61.464203,26.533508 60.139362,25.160311 
	C61.888874,24.204885 63.638386,23.249462 65.815842,22.060333 
	C65.947243,23.877697 65.825226,24.601141 66.074989,25.157757 
	C66.647667,26.434002 67.401718,27.628855 68.082130,28.856754 
	C68.723396,27.755184 69.285995,26.597078 70.026398,25.566748 
	C70.898262,24.353476 71.924210,23.250931 72.920212,22.981667 
	C72.959381,29.842054 72.959381,29.842054 75.527916,30.536331 
	C74.579865,23.741943 74.881050,23.331934 81.105797,23.722588 
	C81.078514,24.497570 81.051231,25.272554 80.798340,26.778250 
	C80.860535,27.530163 80.922722,28.282074 81.016762,29.663048 
	C82.301582,29.727947 83.592445,29.736290 84.869652,29.872561 
	C86.350517,30.030563 87.819397,30.300934 89.293480,30.522524 
	C89.256706,28.681593 89.219925,26.840660 89.179886,24.204390 
	C88.133308,22.856676 87.136650,20.406021 86.031342,20.355997 
	C81.707344,20.160299 77.349014,20.723227 72.429649,20.745377 
	C70.135315,19.105154 68.084351,17.966637 64.972466,19.685635 
	C61.983849,21.336540 58.403702,21.916599 54.833183,22.552610 
	C54.450302,22.307711 54.067417,22.062811 53.230915,21.291286 
	C49.814117,19.526724 47.672993,21.056496 45.412830,24.043734 
	C45.187191,24.082729 44.961552,24.121727 44.399921,23.765896 
	C43.961277,23.384508 43.522629,23.003122 43.004284,21.856106 
	C41.686905,21.497307 40.369530,21.138510 38.188118,20.793169 
	C37.298878,21.778498 36.409634,22.763824 34.858383,23.946384 
	C34.101700,24.133982 33.345016,24.321579 32.588333,24.509176 
	C34.032166,29.119680 29.938030,27.861265 27.572063,28.434296 
	C27.684992,28.884821 27.797920,29.335344 27.910849,29.785870 
	C30.447355,29.943384 32.983860,30.100899 35.533146,31.116043 
	C35.691845,32.188728 35.850544,33.261417 36.051235,34.617939 
	C37.461079,33.187523 38.474468,31.944450 39.700867,30.969267 
	C41.245617,29.740942 42.964401,28.731483 45.177639,28.002312 
	C45.754501,28.346504 46.331360,28.690697 47.242474,29.248577 
	C47.242474,29.248577 47.589462,29.440897 47.966770,30.094698 
M113.892815,91.682892 
	C114.082741,91.932358 114.272659,92.181816 114.462585,92.431282 
	C114.358154,91.914406 114.253723,91.397530 114.083168,90.019844 
	C114.083168,86.894539 114.083168,83.769234 114.083168,80.376144 
	C110.893280,83.249290 110.882256,89.551682 113.892815,91.682892 
M659.101379,13.996612 
	C657.069702,14.053456 655.037964,14.110301 652.114807,14.028778 
	C649.412048,14.075232 646.709229,14.121685 643.106689,14.030561 
	C640.075195,14.075160 637.043762,14.119759 633.162231,14.026189 
	C631.443298,14.070414 629.724365,14.114638 627.104309,14.030264 
	C624.072144,14.076322 621.039917,14.122380 617.126709,14.035460 
	C614.753540,14.078671 612.380310,14.121881 609.114746,14.033290 
	C606.413147,14.078126 603.711548,14.122962 600.116699,14.036926 
	C597.415527,14.079113 594.714417,14.121300 591.144104,14.033237 
	C589.098267,14.074426 587.052368,14.115615 584.113098,14.037056 
	C581.411865,14.078752 578.710632,14.120447 575.115845,14.040640 
	C572.414001,14.080275 569.712219,14.119909 566.116333,14.041392 
	C563.414185,14.079691 560.711975,14.117990 557.115601,14.042303 
	C554.414612,14.077151 551.713562,14.112000 548.100830,14.037667 
	C544.736267,14.072136 541.371765,14.106605 537.090149,14.040036 
	C533.397095,14.072337 529.704102,14.104637 525.139709,14.033955 
	C522.095764,13.783160 519.051758,13.532367 515.116211,13.125828 
	C512.416565,13.172777 509.716980,13.219727 506.214294,13.189498 
	C503.475800,13.500587 500.737274,13.811677 497.113373,14.040085 
	C493.745483,13.778073 490.377594,13.516063 486.081268,13.121962 
	C480.065430,13.160844 474.049561,13.199726 467.101410,13.093376 
	C462.077240,13.129680 457.053070,13.165984 451.095734,13.092777 
	C445.407867,13.115284 439.720032,13.137790 433.095001,13.071491 
	C425.724091,13.098351 418.353210,13.125209 410.067017,13.067134 
	C406.367950,13.105007 402.668884,13.142881 398.049896,13.098243 
	C394.023132,13.140110 389.996338,13.181977 385.057861,13.105898 
	C381.363678,13.156437 377.669495,13.206977 373.078217,13.121384 
	C370.043579,13.175235 367.008942,13.229087 363.050385,13.147430 
	C340.036530,13.167736 317.022675,13.188043 293.124786,13.142044 
	C291.077240,13.220115 289.029663,13.298186 286.062134,13.197924 
	C266.696259,13.229705 247.330383,13.261486 227.342026,13.197870 
	C226.931229,13.259285 226.520416,13.320700 225.547287,13.247866 
	C225.359772,13.292299 225.172272,13.336734 224.081039,13.203017 
	C220.389603,13.260795 216.698166,13.318571 212.111694,13.193915 
	C209.066757,13.255054 206.021835,13.316193 202.073547,13.204394 
	C198.377487,13.265487 194.681412,13.326579 190.077255,13.206223 
	C186.050735,13.266133 182.024216,13.326044 177.095612,13.207089 
	C173.729416,13.267588 170.363220,13.328086 166.110336,13.209261 
	C163.400696,13.268884 160.691055,13.328507 157.097977,13.208566 
	C154.392715,13.267563 151.687439,13.326560 148.063934,13.205490 
	C134.128174,13.164504 120.192375,13.098326 106.256729,13.122680 
	C104.908058,13.125037 103.560371,13.688165 101.973236,14.902168 
	C102.042702,21.939684 102.112167,28.977201 102.548820,36.768269 
	C118.028252,36.742516 133.507690,36.716763 149.874207,36.867634 
	C152.578140,36.808544 155.282059,36.749454 158.873550,36.866112 
	C161.580688,36.807476 164.287842,36.748840 167.896698,36.864826 
	C171.263077,36.807106 174.629471,36.749386 178.907791,36.865833 
	C182.935028,36.807400 186.962280,36.748966 191.898300,36.862858 
	C195.592850,36.808430 199.287384,36.754005 203.879318,36.873413 
	C206.917755,36.822807 209.956177,36.772202 213.917938,36.891594 
	C223.609207,36.825199 233.300461,36.758804 243.876892,36.871456 
	C246.579163,36.811493 249.281448,36.751530 252.868134,36.863106 
	C255.550385,36.805367 258.232635,36.747631 261.799805,36.859547 
	C264.196777,36.804245 266.593719,36.748943 269.876984,36.863213 
	C272.581482,36.806721 275.286011,36.750225 278.875214,36.862518 
	C281.570007,36.816898 284.264801,36.771282 287.693481,36.897999 
	C288.439941,36.847309 289.186371,36.796619 290.832611,36.875153 
	C293.546692,36.818993 296.260773,36.762833 299.881500,36.879421 
	C303.249054,36.823082 306.616608,36.766743 310.888367,36.871799 
	C314.253479,36.818451 317.618622,36.765106 321.887909,36.872391 
	C325.251251,36.823574 328.614563,36.774757 332.874695,36.881302 
	C335.608307,36.843712 338.341949,36.806126 341.977509,36.910194 
	C345.979309,36.857677 349.981110,36.805161 354.883270,36.889698 
	C357.915161,36.849712 360.947021,36.809727 364.882538,36.910923 
	C367.914368,36.869949 370.946167,36.828979 374.894257,36.906754 
	C378.587158,36.875641 382.280029,36.844528 386.896454,36.919682 
	C390.922363,36.896317 394.948242,36.872955 399.896301,36.946854 
	C403.592468,36.923054 407.288605,36.899250 411.921356,36.945713 
	C419.290161,36.919724 426.658966,36.893734 434.956360,36.939728 
	C440.646027,36.903679 446.335663,36.867630 452.949768,36.938911 
	C457.972473,36.921352 462.995178,36.903793 468.949707,36.955837 
	C474.968597,36.931187 480.987488,36.906532 487.918793,36.966953 
	C491.278503,36.923077 494.638184,36.879200 498.895905,36.926132 
	C501.601929,36.877842 504.307983,36.829548 507.905853,36.893559 
	C510.606140,36.852474 513.306396,36.811386 516.907043,36.891174 
	C519.944153,36.847027 522.981323,36.802883 526.930359,36.881840 
	C530.623474,36.838364 534.316650,36.794884 538.917908,36.890835 
	C542.284668,36.840214 545.651367,36.789593 549.909302,36.880344 
	C552.610718,36.827888 555.312134,36.775429 558.904480,36.872944 
	C561.607605,36.820385 564.310791,36.767826 567.904236,36.867825 
	C570.606873,36.814774 573.309509,36.761726 576.901917,36.863735 
	C579.603638,36.813450 582.305298,36.763168 585.873535,36.869972 
	C587.923767,36.814152 589.973938,36.758327 592.910889,36.852272 
	C595.613586,36.800133 598.316223,36.747993 601.904785,36.858463 
	C604.606140,36.804565 607.307434,36.750664 610.886414,36.855129 
	C613.262634,36.801693 615.638916,36.748253 618.910156,36.852829 
	C621.941650,36.803101 624.973206,36.753372 628.731140,36.848717 
	C630.432190,36.756271 632.133240,36.663822 634.757751,36.714966 
	C637.848999,36.663433 640.940308,36.611900 644.915283,36.709072 
	C647.623718,36.669395 650.332214,36.629719 653.897766,36.732872 
	C656.213562,36.696339 658.529297,36.659801 661.737305,36.774673 
	C664.111023,36.728607 666.484802,36.682541 669.684692,36.791077 
	C672.457825,36.757790 675.231018,36.724506 678.890320,36.860550 
	C681.592468,36.804047 684.294617,36.747540 687.860229,36.857952 
	C689.906982,36.804352 691.953735,36.750751 694.887329,36.868324 
	C697.592834,36.811134 700.298401,36.753948 703.892090,36.858189 
	C706.596741,36.802757 709.301331,36.747326 712.907104,36.858894 
	C716.267822,36.811283 719.628540,36.763676 723.897888,36.888897 
	C727.313110,36.888897 730.728333,36.888897 734.239990,36.888897 
	C734.239990,28.693256 734.239990,21.047709 734.239990,13.357734 
	C730.219482,13.357734 726.604248,13.357734 722.204773,13.196666 
	C718.806335,13.259405 715.407898,13.322145 711.123596,13.201018 
	C708.416626,13.260548 705.709656,13.320077 702.119263,13.188872 
	C699.413818,13.252343 696.708313,13.315814 693.140076,13.201104 
	C691.091431,13.262845 689.042847,13.324587 686.111389,13.199921 
	C683.410034,13.262287 680.708679,13.324654 677.121460,13.203583 
	C674.419006,13.262720 671.716492,13.321857 668.153809,13.197551 
	C665.426880,13.460672 662.699890,13.723794 659.101379,13.996612 
M506.014282,67.526573 
	C507.530273,67.657738 509.415649,68.426521 510.493744,67.801910 
	C513.884338,65.837471 516.971619,63.349403 520.689880,60.697777 
	C515.435059,57.467628 513.996582,64.475868 509.998444,63.622890 
	C509.998444,57.046230 510.084412,50.417652 509.923309,43.795086 
	C509.892395,42.525280 508.889618,41.279114 508.335175,40.022034 
	C507.890656,41.223106 507.084167,42.417442 507.061676,43.626377 
	C506.936554,50.350258 507.001587,57.077679 507.001587,64.045380 
	C503.884094,62.577091 501.303162,61.361526 498.722229,60.145958 
	C498.434540,60.743427 498.146820,61.340897 497.859131,61.938370 
	C500.385254,63.638184 502.911407,65.337997 506.014282,67.526573 
M473.547943,66.028511 
	C477.316498,70.053001 480.673340,68.771484 484.142944,65.447151 
	C485.920685,63.743862 488.144379,62.505997 491.012299,60.452042 
	C485.567261,57.907307 483.967224,64.375893 479.998352,63.631897 
	C479.998352,56.880627 480.072418,50.085838 479.923798,43.295921 
	C479.899689,42.193600 478.888611,41.112885 478.333740,40.022179 
	C477.889709,41.057816 477.078522,42.087322 477.061127,43.130077 
	C476.946106,50.020466 477.001678,56.913696 477.001678,64.049477 
	C473.882721,62.578255 471.305481,61.362553 468.728241,60.146851 
	C468.471313,60.691090 468.214417,61.235325 467.957489,61.779560 
	C469.641815,63.026226 471.326111,64.272888 473.547943,66.028511 
M449.998444,43.713638 
	C449.412811,42.485306 448.827179,41.256977 448.241547,40.028637 
	C447.828217,41.263512 447.079346,42.492489 447.057526,43.734253 
	C446.939484,50.444233 447.001556,57.157379 447.001556,64.256592 
	C440.136261,60.245285 440.136261,60.245285 438.279846,61.651772 
	C446.048126,69.780983 447.114471,69.924965 456.072815,63.988392 
	C457.390930,63.114895 458.669586,62.181923 460.147522,61.150116 
	C458.651154,58.056564 457.266296,59.226791 455.454865,60.922562 
	C454.029877,62.256550 452.147339,63.101768 449.998474,64.461174 
	C449.998474,57.324718 449.998474,50.999214 449.998444,43.713638 
M657.998291,42.761509 
	C657.428894,41.849312 656.859497,40.937115 656.290100,40.024940 
	C655.860718,40.911682 655.071777,41.793205 655.058838,42.685986 
	C654.956360,49.740482 655.001892,56.797123 655.001892,64.201660 
	C648.086670,60.295570 648.086670,60.295570 646.252686,61.614487 
	C653.955872,69.708817 655.165161,69.875572 664.027710,63.991116 
	C665.438904,63.054096 666.803223,62.046421 668.698303,60.713280 
	C663.437927,57.460636 661.989319,64.509392 657.998474,63.618073 
	C657.998474,57.016617 657.998474,50.366287 657.998291,42.761509 
M695.049377,59.440037 
	C692.952026,61.057945 690.854736,62.675850 687.907043,64.949738 
	C687.907043,55.849876 687.907043,47.962872 687.907043,40.075867 
	C687.326477,39.953396 686.745911,39.830929 686.165405,39.708458 
	C685.777466,40.968090 685.074707,42.222599 685.054138,43.488201 
	C684.943176,50.310349 685.001587,57.135250 685.001587,64.081879 
	C681.725891,62.503345 679.222046,61.296757 676.718201,60.090168 
	C676.532349,60.523453 676.346497,60.956734 676.160645,61.390018 
	C683.415710,69.523659 685.355652,69.808205 694.175964,63.977371 
	C695.486328,63.111111 696.740234,62.159435 698.454529,60.937828 
	C697.376099,60.198799 696.529053,59.618290 695.049377,59.440037 
M706.543396,62.013355 
	C714.401001,69.803329 715.101440,69.885117 723.965149,63.999722 
	C725.378723,63.061146 726.774231,62.095436 728.744568,60.757675 
	C723.481934,57.549850 722.019836,64.433838 717.867371,63.620121 
	C717.867371,55.828400 717.867371,47.939072 717.867371,40.049744 
	C717.292297,39.934166 716.717224,39.818588 716.142151,39.703011 
	C715.761963,40.981182 715.073730,42.254402 715.053101,43.538338 
	C714.943542,50.351921 715.001587,57.168194 715.001587,64.670692 
	C712.564575,63.056255 711.200623,61.843025 709.606262,61.210938 
	C708.627686,60.823006 707.296326,61.324848 706.543396,62.013355 
M192.677872,63.029297 
	C193.100555,62.827595 193.523254,62.625893 193.945938,62.424191 
	C193.410690,61.546741 192.875458,60.669292 192.334229,59.782043 
	C189.539902,61.770809 187.116943,63.495258 183.998474,65.714722 
	C183.998474,63.784672 183.998535,62.838997 183.998474,61.893318 
	C183.998138,55.745762 184.054016,49.597073 183.930435,43.452000 
	C183.913879,42.629417 182.990082,41.825085 182.486420,41.012299 
	C181.991776,41.834152 181.233627,42.605766 181.065109,43.489796 
	C180.820557,44.772434 181.001633,46.136261 181.001602,47.465462 
	C181.001495,53.296661 181.001556,59.127861 181.001556,65.088676 
	C177.732925,63.505814 175.230225,62.293854 172.727524,61.081894 
	C172.423950,61.682030 172.120392,62.282166 171.816833,62.882301 
	C175.231125,65.247963 178.386978,68.531929 182.167618,69.595963 
	C184.088501,70.136589 187.136398,66.681831 189.671005,65.027382 
	C190.471313,64.504990 191.259216,63.963608 192.677872,63.029297 
M213.998444,60.208790 
	C213.998413,54.901417 214.090958,49.591106 213.922836,44.289055 
	C213.887817,43.184460 212.888641,42.110435 212.333786,41.022324 
	C211.889755,42.055630 211.078506,43.082809 211.061142,44.123238 
	C210.946213,51.010197 211.001694,57.900002 211.001694,65.025887 
	C207.908844,63.577435 205.322159,62.366035 202.735474,61.154633 
	C202.533722,61.585419 202.331985,62.016201 202.130234,62.446983 
	C209.756317,70.683540 211.251205,70.899063 220.212540,64.973770 
	C221.518204,64.110466 222.758148,63.147766 224.037460,62.224594 
	C222.507263,60.593517 222.507263,60.593517 213.998444,65.117233 
	C213.998444,63.591187 213.998444,62.357861 213.998444,60.208790 
M243.454468,41.072994 
	C240.189148,40.482349 241.036316,42.905273 241.023727,44.522697 
	C240.971207,51.277588 241.001602,58.033127 241.001602,65.022858 
	C237.901352,63.575523 235.304962,62.363407 232.708557,61.151291 
	C232.525085,61.595924 232.341629,62.040558 232.158157,62.485191 
	C239.873001,70.756203 241.329147,70.965874 250.362396,64.954834 
	C251.659454,64.091713 252.833878,63.044277 254.665207,61.613136 
	C249.503922,58.562321 248.045639,65.497337 243.959183,64.639244 
	C243.959183,57.109306 243.959183,49.491173 243.454468,41.072994 
M271.001526,46.636589 
	C271.001526,52.703072 271.001526,58.769558 271.001526,64.759834 
	C267.389404,65.103951 266.040100,59.341167 262.001984,62.340328 
	C269.963654,70.753998 271.079102,70.908936 279.976746,64.997978 
	C281.391602,64.058052 282.781921,63.081268 284.745880,61.736519 
	C279.486084,58.583687 277.977325,65.396568 273.996948,64.635437 
	C273.996948,57.549080 274.032562,50.410679 273.944397,43.273808 
	C273.935089,42.521732 273.197083,41.778656 272.797150,41.031399 
	C272.199188,41.745811 271.400574,42.377998 271.063995,43.199505 
	C270.771637,43.912991 271.002106,44.840683 271.001526,46.636589 
M295.450867,66.037918 
	C301.436584,70.867546 301.412994,70.837570 307.482880,66.058739 
	C309.221893,64.689583 311.140656,63.548641 313.785339,61.754768 
	C308.555939,58.446301 306.892761,65.630905 302.998352,64.621010 
	C302.998352,57.868080 303.072876,51.068317 302.922760,44.273525 
	C302.898590,43.178963 301.873260,42.106518 301.310699,41.023853 
	C300.874359,42.066826 300.077393,43.103859 300.060089,44.153732 
	C299.946686,51.039585 300.001678,57.928207 300.001678,65.072052 
	C296.874908,63.583733 294.313782,62.364658 291.752625,61.145584 
	C291.526794,61.641041 291.300934,62.136501 291.075073,62.631958 
	C292.290466,63.746033 293.505859,64.860107 295.450867,66.037918 
M342.960876,61.665352 
	C341.701721,61.552654 340.211609,60.958000 339.231537,61.427662 
	C337.197540,62.402374 335.434265,63.941986 332.998322,65.640877 
	C332.998322,57.806591 333.052826,50.998177 332.941589,44.192474 
	C332.924255,43.130814 332.151703,42.081493 331.728394,41.026478 
	C331.152832,42.095055 330.102753,43.153137 330.078857,44.233910 
	C329.926971,51.102272 330.001648,57.975651 330.001648,64.798859 
	C326.404053,64.976799 324.989838,59.532410 320.986450,62.325459 
	C328.960999,70.747414 330.053467,70.894913 338.926514,65.008499 
	C340.256042,64.126488 341.609406,63.280418 342.960876,61.665352 
M353.774323,62.983284 
	C352.431885,62.384632 351.089447,61.785980 349.747009,61.187328 
	C349.546265,61.613743 349.345490,62.040161 349.144745,62.466576 
	C356.808899,70.715057 358.273682,70.925346 367.268127,64.967369 
	C368.570679,64.104568 369.791718,63.118736 371.063110,62.180485 
	C369.639374,60.739643 369.639374,60.739643 360.998474,65.027496 
	C360.998474,59.720318 361.153168,54.641430 360.938263,49.578228 
	C360.816620,46.712254 360.088135,43.872036 359.632935,41.020222 
	C359.089142,43.783218 358.209778,46.529846 358.074066,49.312744 
	C357.821350,54.494823 358.001526,59.698017 358.001526,65.870628 
	C356.231995,64.437424 355.387299,63.753258 353.774323,62.983284 
M386.443054,68.037949 
	C388.208038,70.020386 389.745575,70.763626 392.191071,68.504532 
	C394.837097,66.060211 398.097046,64.280457 402.232605,61.420040 
	C396.611664,58.877251 395.068726,65.394775 390.998444,64.681137 
	C390.998444,58.195286 391.076263,51.616661 390.934235,45.042786 
	C390.905029,43.691738 390.054108,42.358440 389.581909,41.016972 
	C389.055115,42.303719 388.102997,43.580639 388.072998,44.878864 
	C387.918823,51.553070 388.001556,58.232746 388.001556,65.359070 
	C381.203827,61.166847 381.203827,61.166847 379.078308,62.885632 
	C381.322815,64.610016 383.510437,66.290726 386.443054,68.037949 
M417.001526,47.604061 
	C417.001526,53.339050 417.001526,59.074039 417.001526,65.410522 
	C413.849640,63.558426 411.338043,62.082573 408.072937,60.163967 
	C411.662964,69.058304 418.196075,71.027237 424.450653,66.089241 
	C426.273376,64.650223 428.268829,63.429958 430.739380,61.727459 
	C425.455200,58.516212 423.985901,65.434448 419.998474,64.627968 
	C419.998474,58.712730 420.132751,52.742886 419.921570,46.785290 
	C419.852936,44.848053 418.881683,42.942810 418.323273,41.022938 
	C417.882690,42.894131 417.442108,44.765324 417.001526,47.604061 
M590.083557,65.605698 
	C595.303223,70.557030 600.267639,70.343674 605.144958,65.023323 
	C606.185547,63.888233 607.687317,63.175880 609.748230,61.725807 
	C604.541077,58.419483 602.894043,65.682678 598.998413,64.612396 
	C598.998413,57.851074 599.073547,51.044998 598.921509,44.243996 
	C598.897278,43.159573 597.853455,42.097942 597.281006,41.025784 
	C596.854553,42.078083 596.075989,43.124683 596.058838,44.183605 
	C595.947449,51.063671 596.001648,57.946419 596.001648,64.748039 
	C592.368958,65.149734 591.064453,59.216354 586.729248,62.552776 
	C587.849548,63.532448 588.724548,64.297592 590.083557,65.605698 
M625.001526,62.039223 
	C624.832764,63.039822 624.664062,64.040421 624.479065,65.137749 
	C621.658447,63.463360 619.255371,62.036816 616.109619,60.169441 
	C619.600525,68.984795 626.237305,70.997185 632.442078,66.098038 
	C634.266541,64.657425 636.264771,63.436886 638.742432,61.730473 
	C633.459839,58.525814 631.982788,65.429359 627.998291,64.628464 
	C627.998291,57.711617 628.060852,50.743938 627.923462,43.780220 
	C627.905212,42.851162 626.873474,41.942104 626.311096,41.023762 
	C625.874695,41.901924 625.077637,42.773052 625.060364,43.659397 
	C624.946838,49.480225 625.001648,55.304340 625.001526,62.039223 
M124.998428,62.124535 
	C124.998390,56.484699 125.062256,50.843498 124.941864,45.206234 
	C124.919067,44.138779 124.164841,43.086945 123.748116,42.027905 
	C123.165970,43.087067 122.103615,44.135529 122.079750,45.207123 
	C121.926773,52.076054 122.001686,58.950058 122.001686,66.087868 
	C118.866913,64.585625 116.313438,63.361961 113.759972,62.138294 
	C113.567215,62.598007 113.374466,63.057720 113.181709,63.517433 
	C120.894234,71.746254 122.280556,71.942108 131.300903,65.964012 
	C132.600204,65.102921 133.812317,64.110260 135.753433,62.666138 
	C130.516632,59.536831 129.077347,66.356911 125.123077,65.714584 
	C125.084076,64.873550 125.041267,63.950359 124.998428,62.124535 
M149.695694,68.971222 
	C152.199020,71.168961 154.601547,71.288963 157.240967,69.012062 
	C159.740433,66.855873 162.485947,64.984932 165.589447,62.635643 
	C160.439545,59.479053 158.994354,66.464668 154.998428,65.624268 
	C154.998428,59.047840 155.084366,52.419445 154.923325,45.797058 
	C154.892441,44.526718 153.890335,43.279995 153.336288,42.022377 
	C152.891388,43.223240 152.084213,44.417358 152.061707,45.626087 
	C151.936478,52.350254 152.001587,59.077965 152.001587,66.046387 
	C148.883469,64.577415 146.303284,63.361862 143.723083,62.146313 
	C143.477982,62.673145 143.232880,63.199978 142.987778,63.726810 
	C145.012085,65.342651 147.036392,66.958496 149.695694,68.971222 
M566.001465,46.635586 
	C566.001465,52.369316 566.001465,58.103046 566.001465,64.144150 
	C559.023926,60.349766 559.023926,60.349766 557.222412,61.573074 
	C564.963623,69.754646 566.077942,69.909439 574.976074,63.998062 
	C576.390930,63.058102 577.781616,62.081680 580.039917,60.535892 
	C574.569702,57.868256 572.947510,64.293846 568.996948,63.642437 
	C568.996948,56.882656 569.034241,50.077576 568.944275,43.274181 
	C568.934326,42.521664 568.197266,41.778763 567.797424,41.031399 
	C567.199402,41.745697 566.400696,42.377762 566.064087,43.199181 
	C565.771667,43.912628 566.002136,44.840340 566.001465,46.635586 
M538.998535,48.573921 
	C538.998535,47.574451 539.162842,46.540359 538.961182,45.583389 
	C538.634949,44.035007 538.068176,42.537315 537.603027,41.018215 
	C537.069214,42.468475 536.115295,43.907017 536.074463,45.371021 
	C535.902039,51.554955 536.001465,57.746475 536.001465,64.108292 
	C532.757751,62.515697 530.254211,61.286522 527.750671,60.057346 
	C527.441528,60.664364 527.132385,61.271385 526.823303,61.878407 
	C530.238220,64.245453 533.394409,67.536179 537.175720,68.595299 
	C539.106812,69.136169 542.151855,65.664795 544.706543,64.027390 
	C546.153076,63.100292 547.626160,62.214680 549.922729,60.793278 
	C544.530945,57.510529 543.048767,64.263412 538.998535,63.715179 
	C538.998535,59.052383 538.998535,54.301807 538.998535,48.573921 
M23.949581,79.916336 
	C23.949581,76.638824 23.949581,73.361313 23.949581,70.083794 
	C23.347723,70.076775 22.745867,70.069748 22.144009,70.062729 
	C22.024799,72.659233 21.905588,75.255737 21.775600,78.086998 
	C19.342098,75.499954 17.256062,73.282295 14.995929,70.879562 
	C14.995929,74.824883 14.995929,77.983559 14.995929,81.142235 
	C15.142537,81.126228 15.289145,81.110222 15.435753,81.094215 
	C16.000689,78.816437 16.565626,76.538651 17.130562,74.260872 
	C17.680490,74.358170 18.230421,74.455475 18.780350,74.552780 
	C19.372253,76.379715 19.863134,78.247780 20.585423,80.021622 
	C21.262136,81.683548 22.212973,83.112633 23.949581,79.916336 
M105.915947,92.212448 
	C105.956207,94.384544 105.344490,97.217537 108.525604,95.920448 
	C108.525604,90.047531 108.525604,84.608360 108.525604,77.559860 
	C107.238335,79.445755 106.083107,80.376892 106.008026,81.388222 
	C105.764305,84.671074 105.916313,87.983307 105.915947,92.212448 
M725.881958,96.034393 
	C726.854736,95.313591 728.615417,94.646332 728.668579,93.863068 
	C728.949951,89.722168 728.964417,85.541115 728.686035,81.399887 
	C728.617615,80.382156 727.107239,79.461349 726.259766,78.495987 
	C725.937134,78.797981 725.614502,79.099983 725.291870,79.401985 
	C727.666138,82.349991 727.611328,92.646507 725.881958,96.034393 
M717.956482,80.517403 
	C717.711365,81.260551 717.112244,82.097237 717.279785,82.731377 
	C718.230896,86.330688 719.825928,89.943726 715.554871,92.881958 
	C717.987671,92.881958 720.113281,92.881958 721.438965,92.881958 
	C720.970520,91.188843 720.440674,89.542610 720.067139,87.861649 
	C719.489197,85.261040 719.018127,82.636703 717.956482,80.517403 
M121.078606,86.391136 
	C120.515656,84.426384 119.952713,82.461632 119.389763,80.496872 
	C119.076744,80.616608 118.763725,80.736343 118.450706,80.856079 
	C118.269386,83.667862 118.088066,86.479645 117.906746,89.291428 
	C118.241959,89.451645 118.577171,89.611870 118.912376,89.772087 
	C119.624458,88.903481 120.336540,88.034882 121.078606,86.391136 
M25.481989,78.906158 
	C26.225794,79.971535 26.969599,81.036903 27.713404,82.102280 
	C27.984879,81.940758 28.256351,81.779228 28.527826,81.617706 
	C28.402020,79.087822 28.276211,76.557930 28.150402,74.028046 
	C27.740330,73.932953 27.330257,73.837860 26.920187,73.742775 
	C26.351135,75.230270 25.782084,76.717773 25.481989,78.906158 
M32.292038,75.973442 
	C31.904694,77.825142 31.517347,79.676834 31.068762,81.821281 
	C35.092960,79.554108 35.948181,76.274879 33.414459,73.986855 
	C33.081512,73.686195 32.328274,73.850952 31.769697,73.800148 
	C31.912497,74.320770 32.055294,74.841393 32.292038,75.973442 
M93.949036,82.001450 
	C95.294632,81.619522 96.640228,81.237595 97.985832,80.855667 
	C97.824852,80.365891 97.663879,79.876106 97.502907,79.386330 
	C95.576675,79.717781 93.650444,80.049232 90.899185,80.522652 
	C92.161392,81.297646 92.683968,81.618500 93.949036,82.001450 
M92.743286,74.437546 
	C92.383049,74.277817 92.022804,74.118095 91.662560,73.958366 
	C91.563751,74.362144 91.464943,74.765930 91.366142,75.169708 
	C91.741112,75.077469 92.116074,74.985229 92.743286,74.437546 
M96.636177,73.308136 
	C96.513176,73.567581 96.390175,73.827026 96.267174,74.086479 
	C96.514618,74.161415 96.762062,74.236351 97.009506,74.311279 
	C97.036270,73.955658 97.063026,73.600044 96.636177,73.308136 
M33.903122,19.374763 
	C33.903122,19.374763 34.000271,19.628094 34.000271,19.628094 
	C34.000271,19.628094 34.102139,19.368647 33.903122,19.374763 
z"/>
<path fill="#FCFCBC" opacity="1.000000" stroke="none" 
	d="
M410.982300,13.152067 
	C418.353210,13.125209 425.724091,13.098351 433.553223,13.567270 
	C434.016876,21.664614 434.022308,29.266180 434.027771,36.867744 
	C426.658966,36.893734 419.290161,36.919724 411.458069,36.455318 
	C410.990631,28.360638 410.986481,20.756353 410.982300,13.152067 
z"/>
<path fill="#E6F59A" opacity="1.000000" stroke="none" 
	d="
M468.033691,13.238607 
	C474.049561,13.199726 480.065430,13.160844 486.542664,13.631458 
	C487.004822,21.721264 487.005585,29.301573 487.006378,36.881882 
	C480.987488,36.906532 474.968597,36.931187 468.477295,36.463669 
	C468.014465,28.393867 468.024078,20.816236 468.033691,13.238607 
z"/>
<path fill="#F4FBAF" opacity="1.000000" stroke="none" 
	d="
M434.492065,36.903736 
	C434.022308,29.266180 434.016876,21.664614 434.021790,13.611671 
	C439.720032,13.137790 445.407867,13.115284 451.553223,13.594964 
	C452.015594,21.675295 452.020477,29.253437 452.025330,36.831581 
	C446.335663,36.867630 440.646027,36.903679 434.492065,36.903736 
z"/>
<path fill="#EEF8A5" opacity="1.000000" stroke="none" 
	d="
M452.487549,36.885246 
	C452.020477,29.253437 452.015594,21.675295 452.019836,13.649719 
	C457.053070,13.165984 462.077240,13.129680 467.567566,13.165992 
	C468.024078,20.816236 468.014465,28.393867 468.011353,36.428864 
	C462.995178,36.903793 457.972473,36.921352 452.487549,36.885246 
z"/>
<path fill="#DD4B4B" opacity="1.000000" stroke="none" 
	d="
M177.997696,13.385954 
	C182.024216,13.326044 186.050735,13.266133 190.534912,13.739054 
	C190.991547,21.744768 190.990524,29.217651 190.989517,36.690536 
	C186.962280,36.748966 182.935028,36.807400 178.451813,36.330978 
	C177.996445,28.326067 177.997070,20.856010 177.997696,13.385954 
z"/>
<path fill="#FEF2A9" opacity="1.000000" stroke="none" 
	d="
M385.969604,13.223845 
	C389.996338,13.181977 394.023132,13.140110 398.519714,13.588980 
	C398.984436,21.669674 398.979279,29.259632 398.974152,36.849594 
	C394.948242,36.872955 390.922363,36.896317 386.443237,36.417068 
	C385.983215,28.350918 385.976410,20.787382 385.969604,13.223845 
z"/>
<path fill="#FEE18E" opacity="1.000000" stroke="none" 
	d="
M363.978912,36.769737 
	C360.947021,36.809727 357.915161,36.849712 354.438049,36.375835 
	C353.995239,31.873762 353.999268,27.885551 353.999664,23.897341 
	C354.000641,13.961106 354.000000,13.961106 343.526733,14.018970 
	C339.373474,14.017682 335.680237,14.020542 331.530151,14.017236 
	C327.713654,14.014253 324.353973,14.017438 320.536926,14.012352 
	C316.720917,14.005603 313.362305,14.007122 309.545227,13.999886 
	C305.723724,13.993036 302.360657,13.994944 298.619141,13.986799 
	C296.830078,13.720615 295.419434,13.464484 294.008820,13.208351 
	C317.022675,13.188043 340.036530,13.167736 363.520599,13.656130 
	C363.986847,21.699799 363.982880,29.234770 363.978912,36.769737 
z"/>
<path fill="#E35449" opacity="1.000000" stroke="none" 
	d="
M191.443909,36.776695 
	C190.990524,29.217651 190.991547,21.744768 190.988953,13.829778 
	C194.681412,13.326579 198.377487,13.265487 202.530746,13.733472 
	C202.985931,21.741558 202.983932,29.220568 202.981934,36.699577 
	C199.287384,36.754005 195.592850,36.808430 191.443909,36.776695 
z"/>
<path fill="#655CA9" opacity="1.000000" stroke="none" 
	d="
M722.988953,13.357734 
	C726.604248,13.357734 730.219482,13.357734 734.239990,13.357734 
	C734.239990,21.047709 734.239990,28.693256 734.239990,36.888897 
	C730.728333,36.888897 727.313110,36.888897 723.446167,36.353279 
	C722.992615,28.331017 722.990784,20.844376 722.988953,13.357734 
z"/>
<path fill="#FEEA9F" opacity="1.000000" stroke="none" 
	d="
M385.513733,13.164871 
	C385.976410,20.787382 385.983215,28.350918 385.981506,36.363934 
	C382.280029,36.844528 378.587158,36.875641 374.442932,36.399841 
	C373.986145,28.347792 373.980743,20.802654 373.975311,13.257517 
	C377.669495,13.206977 381.363678,13.156437 385.513733,13.164871 
z"/>
<path fill="#FEF9B4" opacity="1.000000" stroke="none" 
	d="
M399.435242,36.898224 
	C398.979279,29.259632 398.984436,21.669674 398.979675,13.630236 
	C402.668884,13.142881 406.367950,13.105007 410.524658,13.109600 
	C410.986481,20.756353 410.990631,28.360638 410.989777,36.420189 
	C407.288605,36.899250 403.592468,36.923054 399.435242,36.898224 
z"/>
<path fill="#A20543" opacity="1.000000" stroke="none" 
	d="
M102.181641,36.014717 
	C102.112167,28.977201 102.042702,21.939684 102.540710,14.459105 
	C107.061882,14.047276 111.015587,14.078509 114.980530,14.567576 
	C114.988617,21.997484 114.985466,28.969557 114.522079,35.955944 
	C110.101776,35.985077 106.141708,35.999897 102.181641,36.014717 
z"/>
<path fill="#FCAC63" opacity="1.000000" stroke="none" 
	d="
M293.566803,13.175199 
	C295.419434,13.464484 296.830078,13.720615 298.620331,14.455763 
	C298.991608,22.192078 298.983246,29.449377 298.974854,36.706673 
	C296.260773,36.762833 293.546692,36.818993 290.153992,36.597336 
	C288.646606,36.207146 287.817841,36.094776 286.992493,35.514915 
	C286.991302,27.823696 286.986694,20.599977 286.982117,13.376257 
	C289.029663,13.298186 291.077240,13.220115 293.566803,13.175199 
z"/>
<path fill="#EF6544" opacity="1.000000" stroke="none" 
	d="
M213.006729,13.376348 
	C216.698166,13.318571 220.389603,13.260795 224.536865,13.734204 
	C224.991928,21.498528 224.991196,28.731663 224.531036,35.974579 
	C220.387405,35.983189 216.703186,35.982025 213.012543,35.513493 
	C213.006332,27.822865 213.006531,20.599606 213.006729,13.376348 
z"/>
<path fill="#B7E2A1" opacity="1.000000" stroke="none" 
	d="
M538.009766,36.751404 
	C534.316650,36.794884 530.623474,36.838364 526.468628,36.374611 
	C526.008240,28.623898 526.009644,21.380417 526.011047,14.136936 
	C529.704102,14.104637 533.397095,14.072337 537.546082,14.546431 
	C538.004578,22.285685 538.007141,29.518545 538.009766,36.751404 
z"/>
<path fill="#FDD180" opacity="1.000000" stroke="none" 
	d="
M331.987000,14.023403 
	C335.680237,14.020542 339.373474,14.017682 343.531616,14.484950 
	C343.997620,20.590437 344.219666,26.239744 343.865479,31.852678 
	C343.758789,33.543251 342.050293,35.132740 341.075562,36.768536 
	C338.341949,36.806126 335.608307,36.843712 332.432434,36.359196 
	C331.989105,28.565861 331.988068,21.294632 331.987000,14.023403 
z"/>
<path fill="#C1294A" opacity="1.000000" stroke="none" 
	d="
M102.365234,36.391495 
	C106.141708,35.999897 110.101776,35.985077 114.972939,35.976585 
	C118.582458,35.969296 121.280884,35.955681 124.430183,35.960274 
	C127.578697,35.966602 130.276337,35.954723 133.425964,35.960915 
	C140.998840,35.999668 140.998947,35.999668 140.999924,28.760778 
	C141.000305,25.948923 141.001938,23.137064 140.999588,20.325211 
	C140.994263,13.952192 140.993408,13.950996 134.449860,14.026131 
	C133.954132,14.031822 133.458786,14.071476 132.515518,14.074523 
	C129.367752,14.069839 126.667725,14.085975 123.519714,14.080799 
	C120.370911,14.076239 117.670097,14.092991 114.969292,14.109743 
	C111.015587,14.078509 107.061882,14.047276 102.660202,14.003512 
	C103.560371,13.688165 104.908058,13.125037 106.256729,13.122680 
	C120.192375,13.098326 134.128174,13.164504 148.526688,13.738380 
	C148.988678,21.744516 148.987900,29.217764 148.987122,36.691010 
	C133.507690,36.716763 118.028252,36.742516 102.365234,36.391495 
z"/>
<path fill="#FBA25B" opacity="1.000000" stroke="none" 
	d="
M286.522125,13.287090 
	C286.986694,20.599977 286.991302,27.823696 286.983459,35.700764 
	C286.970978,36.354111 286.959595,36.725662 286.959595,36.725662 
	C284.264801,36.771282 281.570007,36.816898 278.434570,36.332520 
	C277.995941,31.489458 278.068237,27.175051 277.985840,22.863598 
	C277.796478,12.958591 279.821075,14.032724 268.529907,14.037594 
	C265.381592,14.034923 262.681610,14.045306 259.539154,14.041224 
	C256.726349,14.036911 254.356018,14.047066 251.536682,14.041586 
	C248.387772,14.035193 245.687897,14.044436 242.545074,14.036858 
	C239.732330,14.030296 237.362534,14.040555 234.552490,14.034400 
	C232.054459,14.013068 229.996658,14.008151 227.939484,13.825533 
	C227.940094,13.647832 227.964508,13.293267 227.964508,13.293267 
	C247.330383,13.261486 266.696259,13.229705 286.522125,13.287090 
z"/>
<path fill="#D7414D" opacity="1.000000" stroke="none" 
	d="
M177.546661,13.296522 
	C177.997070,20.856010 177.996445,28.326067 177.995834,36.243896 
	C174.629471,36.749386 171.263077,36.807106 167.445801,36.329742 
	C166.995605,28.325964 166.996323,20.857275 166.997025,13.388584 
	C170.363220,13.328086 173.729416,13.267588 177.546661,13.296522 
z"/>
<path fill="#545CA8" opacity="1.000000" stroke="none" 
	d="
M722.596863,13.277200 
	C722.990784,20.844376 722.992615,28.331017 722.991821,36.266861 
	C719.628540,36.763676 716.267822,36.811283 712.454834,36.327789 
	C712.004822,28.326080 712.007141,20.855482 712.009460,13.384883 
	C715.407898,13.322145 718.806335,13.259405 722.596863,13.277200 
z"/>
<path fill="#DBF09A" opacity="1.000000" stroke="none" 
	d="
M487.462585,36.924416 
	C487.005585,29.301573 487.004822,21.721264 487.006866,13.697504 
	C490.377594,13.516063 493.745483,13.778073 497.556519,14.538330 
	C497.999084,22.302824 497.998474,29.569073 497.997894,36.835323 
	C494.638184,36.879200 491.278503,36.923077 487.462585,36.924416 
z"/>
<path fill="#ABDDA5" opacity="1.000000" stroke="none" 
	d="
M538.463867,36.821121 
	C538.007141,29.518545 538.004578,22.285685 538.004639,14.596949 
	C541.371765,14.106605 544.736267,14.072136 548.552246,14.547955 
	C549.008545,22.285151 549.013306,29.512058 549.018127,36.738968 
	C545.651367,36.789593 542.284668,36.840214 538.463867,36.821121 
z"/>
<path fill="#FDC877" opacity="1.000000" stroke="none" 
	d="
M331.530151,14.017236 
	C331.988068,21.294632 331.989105,28.565861 331.984009,36.281517 
	C328.614563,36.774757 325.251251,36.823574 321.440002,36.347984 
	C320.992828,28.555925 320.993591,21.288275 320.994324,14.020622 
	C324.353973,14.017438 327.713654,14.014253 331.530151,14.017236 
z"/>
<path fill="#FDC070" opacity="1.000000" stroke="none" 
	d="
M320.536926,14.012352 
	C320.993591,21.288275 320.992828,28.555925 320.987915,36.267670 
	C317.618622,36.765106 314.253479,36.818451 310.439941,36.346382 
	C309.995575,28.550192 309.999603,21.279417 310.003662,14.008641 
	C313.362305,14.007122 316.720917,14.005603 320.536926,14.012352 
z"/>
<path fill="#FCB26D" opacity="1.000000" stroke="none" 
	d="
M309.545227,13.999886 
	C309.999603,21.279417 309.995575,28.550192 309.987854,36.265686 
	C306.616608,36.766743 303.249054,36.823082 299.428162,36.793049 
	C298.983246,29.449377 298.991608,22.192078 298.998779,14.465815 
	C302.360657,13.994944 305.723724,13.993036 309.545227,13.999886 
z"/>
<path fill="#FEE695" opacity="1.000000" stroke="none" 
	d="
M373.526764,13.189450 
	C373.980743,20.802654 373.986145,28.347792 373.984802,36.340469 
	C370.946167,36.828979 367.914368,36.869949 364.430725,36.840332 
	C363.982880,29.234770 363.986847,21.699799 363.982544,13.723884 
	C367.008942,13.229087 370.043579,13.175235 373.526764,13.189450 
z"/>
<path fill="#E75E4D" opacity="1.000000" stroke="none" 
	d="
M212.559204,13.285131 
	C213.006531,20.599606 213.006332,27.822865 213.001404,35.698631 
	C212.996704,36.351135 212.994614,36.721596 212.994614,36.721596 
	C209.956177,36.772202 206.917755,36.822807 203.430634,36.786495 
	C202.983932,29.220568 202.985931,21.741558 202.982422,13.819941 
	C206.021835,13.316193 209.066757,13.255054 212.559204,13.285131 
z"/>
<path fill="#FDDB86" opacity="1.000000" stroke="none" 
	d="
M341.526550,36.839363 
	C342.050293,35.132740 343.758789,33.543251 343.865479,31.852678 
	C344.219666,26.239744 343.997620,20.590437 343.991638,14.489100 
	C354.000000,13.961106 354.000641,13.961106 353.999664,23.897341 
	C353.999268,27.885551 353.995239,31.873762 353.987885,36.307308 
	C349.981110,36.805161 345.979309,36.857677 341.526550,36.839363 
z"/>
<path fill="#C1E5A1" opacity="1.000000" stroke="none" 
	d="
M525.575378,14.085445 
	C526.009644,21.380417 526.008240,28.623898 526.012634,36.313057 
	C522.981323,36.802883 519.944153,36.847027 516.454712,36.384193 
	C516.004150,28.345335 516.005981,20.813454 516.007812,13.281572 
	C519.051758,13.532367 522.095764,13.783160 525.575378,14.085445 
z"/>
<path fill="#59B3AA" opacity="1.000000" stroke="none" 
	d="
M628.004700,36.703640 
	C624.973206,36.753372 621.941650,36.803101 618.458618,36.327877 
	C618.007263,28.591429 618.007507,21.379934 618.007751,14.168438 
	C621.039917,14.122380 624.072144,14.076322 627.553223,14.551828 
	C628.002991,22.283476 628.003845,29.493557 628.004700,36.703640 
z"/>
<path fill="#F36E44" opacity="1.000000" stroke="none" 
	d="
M227.938858,14.003232 
	C229.996658,14.008151 232.054459,14.013068 234.555145,14.497488 
	C234.998688,18.755684 234.999802,22.534376 234.999908,26.313070 
	C235.000168,36.061535 235.000000,36.061535 224.990448,35.964798 
	C224.991196,28.731663 224.991928,21.498528 224.988708,13.823280 
	C225.172272,13.336734 225.359772,13.292299 226.016510,13.479607 
	C226.970108,13.808642 227.454483,13.905936 227.938858,14.003232 
z"/>
<path fill="#4AA3B1" opacity="1.000000" stroke="none" 
	d="
M634.012268,14.164357 
	C637.043762,14.119759 640.075195,14.075160 643.554443,14.556266 
	C644.011963,22.241436 644.021790,29.400902 644.031616,36.560368 
	C640.940308,36.611900 637.848999,36.663433 634.354126,36.118641 
	C633.971130,28.402996 633.991699,21.283676 634.012268,14.164357 
z"/>
<path fill="#4970B1" opacity="1.000000" stroke="none" 
	d="
M694.002869,13.379285 
	C696.708313,13.315814 699.413818,13.252343 702.561340,13.726737 
	C703.003601,21.741985 703.003723,29.219370 703.003906,36.696754 
	C700.298401,36.753948 697.592834,36.811134 694.443176,36.334858 
	C694.000305,28.327356 694.001587,20.853321 694.002869,13.379285 
z"/>
<path fill="#4C65AC" opacity="1.000000" stroke="none" 
	d="
M703.447998,36.777473 
	C703.003723,29.219370 703.003601,21.741985 703.003052,13.822104 
	C705.709656,13.320077 708.416626,13.260548 711.566528,13.292951 
	C712.007141,20.855482 712.004822,28.326080 712.004272,36.244286 
	C709.301331,36.747326 706.596741,36.802757 703.447998,36.777473 
z"/>
<path fill="#C9314C" opacity="1.000000" stroke="none" 
	d="
M149.430664,36.779320 
	C148.987900,29.217764 148.988678,21.744516 148.985809,13.828413 
	C151.687439,13.326560 154.392715,13.267563 157.543549,13.740875 
	C157.988083,21.745579 157.987045,29.217972 157.985992,36.690365 
	C155.282059,36.749454 152.578140,36.808544 149.430664,36.779320 
z"/>
<path fill="#3A7CB7" opacity="1.000000" stroke="none" 
	d="
M686.996765,36.691032 
	C684.294617,36.747540 681.592468,36.804047 678.445923,36.328411 
	C678.003418,28.326521 678.005371,20.856771 678.007324,13.387020 
	C680.708679,13.324654 683.410034,13.262287 686.554871,13.735138 
	C686.997864,21.743916 686.997314,29.217476 686.996765,36.691032 
z"/>
<path fill="#D0394D" opacity="1.000000" stroke="none" 
	d="
M158.429779,36.778236 
	C157.987045,29.217972 157.988083,21.745579 157.985275,13.830658 
	C160.691055,13.328507 163.400696,13.268884 166.553680,13.298923 
	C166.996323,20.857275 166.995605,28.325964 166.994934,36.242432 
	C164.287842,36.748840 161.580688,36.807476 158.429779,36.778236 
z"/>
<path fill="#C9E99E" opacity="1.000000" stroke="none" 
	d="
M515.562012,13.203699 
	C516.005981,20.813454 516.004150,28.345335 516.004517,36.323761 
	C513.306396,36.811386 510.606140,36.852474 507.455322,36.390030 
	C507.008942,28.346561 507.013153,20.806620 507.017365,13.266677 
	C509.716980,13.219727 512.416565,13.172777 515.562012,13.203699 
z"/>
<path fill="#3484BB" opacity="1.000000" stroke="none" 
	d="
M677.564392,13.295301 
	C678.005371,20.856771 678.003418,28.326521 678.002808,36.243748 
	C675.231018,36.724506 672.457825,36.757790 669.320618,36.187504 
	C668.975708,28.182953 668.994873,20.781975 669.014038,13.380995 
	C671.716492,13.321857 674.419006,13.262720 677.564392,13.295301 
z"/>
<path fill="#D2EC9E" opacity="1.000000" stroke="none" 
	d="
M506.615845,13.228087 
	C507.013153,20.806620 507.008942,28.346561 507.009399,36.333881 
	C504.307983,36.829548 501.601929,36.877842 498.446899,36.880730 
	C497.998474,29.569073 497.999084,22.302824 497.999207,14.579670 
	C500.737274,13.811677 503.475800,13.500587 506.615845,13.228087 
z"/>
<path fill="#9FD8A4" opacity="1.000000" stroke="none" 
	d="
M549.463745,36.809654 
	C549.013306,29.512058 549.008545,22.285151 549.008179,14.602545 
	C551.713562,14.112000 554.414612,14.077151 557.559326,14.554579 
	C558.006531,22.285561 558.010010,29.504267 558.013550,36.722973 
	C555.312134,36.775429 552.610718,36.827888 549.463745,36.809654 
z"/>
<path fill="#67C2A4" opacity="1.000000" stroke="none" 
	d="
M601.009949,14.167799 
	C603.711548,14.122962 606.413147,14.078126 609.558472,14.555681 
	C610.004333,22.284304 610.006531,29.490534 610.008789,36.696766 
	C607.307434,36.750664 604.606140,36.804565 601.456665,36.332050 
	C601.008972,28.593025 601.009460,21.380413 601.009949,14.167799 
z"/>
<path fill="#FA9957" opacity="1.000000" stroke="none" 
	d="
M268.978271,14.050648 
	C279.821075,14.032724 277.796478,12.958591 277.985840,22.863598 
	C278.068237,27.175051 277.995941,31.489458 277.992218,36.248131 
	C275.286011,36.750225 272.581482,36.806721 269.435486,36.332401 
	C268.988739,28.551275 268.983490,21.300962 268.978271,14.050648 
z"/>
<path fill="#96D5A4" opacity="1.000000" stroke="none" 
	d="
M558.458984,36.797958 
	C558.010010,29.504267 558.006531,22.285561 558.006409,14.611570 
	C560.711975,14.117990 563.414185,14.079691 566.559753,14.555859 
	C567.006775,22.285307 567.010315,29.500288 567.013916,36.715271 
	C564.310791,36.767826 561.607605,36.820385 558.458984,36.797958 
z"/>
<path fill="#8CD0A4" opacity="1.000000" stroke="none" 
	d="
M567.459045,36.791550 
	C567.010315,29.500288 567.006775,22.285307 567.006775,14.614933 
	C569.712219,14.119909 572.414001,14.080275 575.559326,14.556942 
	C576.005920,22.285053 576.009033,29.496864 576.012085,36.708675 
	C573.309509,36.761726 570.606873,36.814774 567.459045,36.791550 
z"/>
<path fill="#F67F4B" opacity="1.000000" stroke="none" 
	d="
M242.988007,14.053677 
	C245.687897,14.044436 248.387772,14.035193 251.541992,14.503897 
	C251.992126,22.218416 251.987915,29.454990 251.983719,36.691566 
	C249.281448,36.751530 246.579163,36.811493 243.435410,36.334961 
	C242.991943,28.550205 242.989975,21.301941 242.988007,14.053677 
z"/>
<path fill="#82CDA4" opacity="1.000000" stroke="none" 
	d="
M576.457031,36.786205 
	C576.009033,29.496864 576.005920,22.285053 576.006104,14.617693 
	C578.710632,14.120447 581.411865,14.078752 584.557556,14.553204 
	C585.003662,22.283863 585.005371,29.498373 585.007019,36.712883 
	C582.305298,36.763168 579.603638,36.813450 576.457031,36.786205 
z"/>
<path fill="#70C6A4" opacity="1.000000" stroke="none" 
	d="
M600.563354,14.102364 
	C601.009460,21.380413 601.008972,28.593025 601.013672,36.250748 
	C598.316223,36.747993 595.613586,36.800133 592.460693,36.332428 
	C592.011475,28.596218 592.012390,21.379852 592.013245,14.163486 
	C594.714417,14.121300 597.415527,14.079113 600.563354,14.102364 
z"/>
<path fill="#F57647" opacity="1.000000" stroke="none" 
	d="
M242.545074,14.036858 
	C242.989975,21.301941 242.991943,28.550205 242.992828,36.245438 
	C233.300461,36.758804 223.609207,36.825199 213.456268,36.806595 
	C212.994614,36.721596 212.996704,36.351135 213.007843,36.166000 
	C216.703186,35.982025 220.387405,35.983189 224.531036,35.974579 
	C235.000000,36.061535 235.000168,36.061535 234.999908,26.313070 
	C234.999802,22.534376 234.998688,18.755684 234.995392,14.513903 
	C237.362534,14.040555 239.732330,14.030296 242.545074,14.036858 
z"/>
<path fill="#F89053" opacity="1.000000" stroke="none" 
	d="
M268.529907,14.037594 
	C268.983490,21.300962 268.988739,28.551275 268.992310,36.247616 
	C266.593719,36.748943 264.196777,36.804245 261.177124,36.423088 
	C260.363525,28.676313 260.172577,21.366001 259.981659,14.055690 
	C262.681610,14.045306 265.381592,14.034923 268.529907,14.037594 
z"/>
<path fill="#439BB5" opacity="1.000000" stroke="none" 
	d="
M644.473450,36.634720 
	C644.021790,29.400902 644.011963,22.241436 644.004333,14.625053 
	C646.709229,14.121685 649.412048,14.075232 652.558472,14.555075 
	C653.014954,22.250929 653.027832,29.420485 653.040649,36.590042 
	C650.332214,36.629719 647.623718,36.669395 644.473450,36.634720 
z"/>
<path fill="#F7884F" opacity="1.000000" stroke="none" 
	d="
M259.539154,14.041224 
	C260.172577,21.366001 260.363525,28.676313 260.734680,36.338257 
	C258.232635,36.747631 255.550385,36.805367 252.425934,36.777336 
	C251.987915,29.454990 251.992126,22.218416 251.991013,14.519529 
	C254.356018,14.047066 256.726349,14.036911 259.539154,14.041224 
z"/>
<path fill="#368CBB" opacity="1.000000" stroke="none" 
	d="
M668.583862,13.289273 
	C668.994873,20.781975 668.975708,28.182953 668.907532,36.110203 
	C666.484802,36.682541 664.111023,36.728607 661.344727,36.173203 
	C660.968079,33.413876 661.094299,31.250044 660.977844,29.099361 
	C660.704712,24.058527 660.315308,19.023994 659.972961,13.986914 
	C662.699890,13.723794 665.426880,13.460672 668.583862,13.289273 
z"/>
<path fill="#5FBBA7" opacity="1.000000" stroke="none" 
	d="
M610.447632,36.775948 
	C610.006531,29.490534 610.004333,22.284304 610.004639,14.621582 
	C612.380310,14.121881 614.753540,14.078671 617.567261,14.101949 
	C618.007507,21.379934 618.007263,28.591429 618.011108,36.248871 
	C615.638916,36.748253 613.262634,36.801693 610.447632,36.775948 
z"/>
<path fill="#3C93B7" opacity="1.000000" stroke="none" 
	d="
M659.537170,13.991762 
	C660.315308,19.023994 660.704712,24.058527 660.977844,29.099361 
	C661.094299,31.250044 660.968079,33.413876 660.898621,36.097504 
	C658.529297,36.659801 656.213562,36.696339 653.469238,36.661457 
	C653.027832,29.420485 653.014954,22.250929 653.004150,14.624258 
	C655.037964,14.110301 657.069702,14.053456 659.537170,13.991762 
z"/>
<path fill="#4075B4" opacity="1.000000" stroke="none" 
	d="
M687.428467,36.774494 
	C686.997314,29.217476 686.997864,21.743916 686.996277,13.828341 
	C689.042847,13.324587 691.091431,13.262845 693.571472,13.290195 
	C694.001587,20.853321 694.000305,28.327356 693.999756,36.249271 
	C691.953735,36.750751 689.906982,36.804352 687.428467,36.774494 
z"/>
<path fill="#7AC9A8" opacity="1.000000" stroke="none" 
	d="
M591.578674,14.098361 
	C592.012390,21.379852 592.011475,28.596218 592.017334,36.257545 
	C589.973938,36.758327 587.923767,36.814152 585.440308,36.791428 
	C585.005371,29.498373 585.003662,22.283863 585.004272,14.613078 
	C587.052368,14.115615 589.098267,14.074426 591.578674,14.098361 
z"/>
<path fill="#000000" opacity="1.000000" stroke="none" 
	d="
M505.725891,67.282196 
	C502.911407,65.337997 500.385254,63.638184 497.859131,61.938370 
	C498.146820,61.340897 498.434540,60.743427 498.722229,60.145958 
	C501.303162,61.361526 503.884094,62.577091 507.001587,64.045380 
	C507.001587,57.077679 506.936554,50.350258 507.061676,43.626377 
	C507.084167,42.417442 507.890656,41.223106 508.335205,40.022038 
	C508.889618,41.279114 509.892395,42.525280 509.923309,43.795086 
	C510.084412,50.417652 509.998444,57.046230 509.998444,63.622890 
	C513.996582,64.475868 515.435059,57.467628 520.689880,60.697777 
	C516.971619,63.349403 513.884338,65.837471 510.493744,67.801910 
	C509.415649,68.426521 507.530273,67.657738 505.725891,67.282196 
z"/>
<path fill="#000000" opacity="1.000000" stroke="none" 
	d="
M473.279175,65.774033 
	C471.326111,64.272888 469.641815,63.026226 467.957489,61.779560 
	C468.214417,61.235325 468.471313,60.691090 468.728241,60.146851 
	C471.305481,61.362553 473.882721,62.578255 477.001678,64.049477 
	C477.001678,56.913696 476.946106,50.020466 477.061127,43.130077 
	C477.078522,42.087322 477.889709,41.057816 478.333740,40.022179 
	C478.888611,41.112885 479.899689,42.193600 479.923798,43.295921 
	C480.072418,50.085838 479.998352,56.880627 479.998352,63.631897 
	C483.967224,64.375893 485.567261,57.907307 491.012299,60.452042 
	C488.144379,62.505997 485.920685,63.743862 484.142944,65.447151 
	C480.673340,68.771484 477.316498,70.053001 473.279175,65.774033 
z"/>
<path fill="#000000" opacity="1.000000" stroke="none" 
	d="
M449.998474,44.193672 
	C449.998474,50.999214 449.998474,57.324718 449.998474,64.461174 
	C452.147339,63.101768 454.029877,62.256550 455.454865,60.922562 
	C457.266296,59.226791 458.651154,58.056564 460.147522,61.150116 
	C458.669586,62.181923 457.390930,63.114895 456.072815,63.988392 
	C447.114471,69.924965 446.048126,69.780983 438.279846,61.651772 
	C440.136261,60.245285 440.136261,60.245285 447.001556,64.256592 
	C447.001556,57.157379 446.939484,50.444233 447.057526,43.734253 
	C447.079346,42.492489 447.828217,41.263512 448.241547,40.028641 
	C448.827179,41.256977 449.412811,42.485306 449.998474,44.193672 
z"/>
<path fill="#000000" opacity="1.000000" stroke="none" 
	d="
M657.998413,43.238731 
	C657.998474,50.366287 657.998474,57.016617 657.998474,63.618073 
	C661.989319,64.509392 663.437927,57.460636 668.698303,60.713280 
	C666.803223,62.046421 665.438904,63.054096 664.027710,63.991116 
	C655.165161,69.875572 653.955872,69.708817 646.252686,61.614487 
	C648.086670,60.295570 648.086670,60.295570 655.001892,64.201660 
	C655.001892,56.797123 654.956360,49.740482 655.058838,42.685986 
	C655.071777,41.793205 655.860718,40.911682 656.290100,40.024929 
	C656.859497,40.937115 657.428894,41.849312 657.998413,43.238731 
z"/>
<path fill="#000000" opacity="1.000000" stroke="none" 
	d="
M695.365662,59.238911 
	C696.529053,59.618290 697.376099,60.198799 698.454529,60.937828 
	C696.740234,62.159435 695.486328,63.111111 694.175964,63.977371 
	C685.355652,69.808205 683.415710,69.523659 676.160645,61.390018 
	C676.346497,60.956734 676.532349,60.523453 676.718201,60.090168 
	C679.222046,61.296757 681.725891,62.503345 685.001587,64.081879 
	C685.001587,57.135250 684.943176,50.310349 685.054138,43.488201 
	C685.074707,42.222599 685.777466,40.968090 686.165405,39.708458 
	C686.745911,39.830929 687.326477,39.953396 687.907043,40.075867 
	C687.907043,47.962872 687.907043,55.849876 687.907043,64.949738 
	C690.854736,62.675850 692.952026,61.057945 695.365662,59.238911 
z"/>
<path fill="#000000" opacity="1.000000" stroke="none" 
	d="
M706.333374,61.720249 
	C707.296326,61.324848 708.627686,60.823006 709.606262,61.210938 
	C711.200623,61.843025 712.564575,63.056255 715.001587,64.670692 
	C715.001587,57.168194 714.943542,50.351921 715.053101,43.538338 
	C715.073730,42.254402 715.761963,40.981182 716.142151,39.703011 
	C716.717224,39.818588 717.292297,39.934166 717.867371,40.049744 
	C717.867371,47.939072 717.867371,55.828400 717.867371,63.620121 
	C722.019836,64.433838 723.481934,57.549850 728.744568,60.757675 
	C726.774231,62.095436 725.378723,63.061146 723.965149,63.999722 
	C715.101440,69.885117 714.401001,69.803329 706.333374,61.720249 
z"/>
<path fill="#000000" opacity="1.000000" stroke="none" 
	d="
M192.365326,63.230106 
	C191.259216,63.963608 190.471313,64.504990 189.671005,65.027382 
	C187.136398,66.681831 184.088501,70.136589 182.167618,69.595963 
	C178.386978,68.531929 175.231125,65.247963 171.816833,62.882301 
	C172.120392,62.282166 172.423950,61.682030 172.727524,61.081894 
	C175.230225,62.293854 177.732925,63.505814 181.001556,65.088676 
	C181.001556,59.127861 181.001495,53.296661 181.001602,47.465462 
	C181.001633,46.136261 180.820557,44.772434 181.065109,43.489796 
	C181.233627,42.605766 181.991776,41.834152 182.486420,41.012299 
	C182.990082,41.825085 183.913879,42.629417 183.930435,43.452000 
	C184.054016,49.597073 183.998138,55.745762 183.998474,61.893318 
	C183.998535,62.838997 183.998474,63.784672 183.998474,65.714722 
	C187.116943,63.495258 189.539902,61.770809 192.334229,59.782043 
	C192.875458,60.669292 193.410690,61.546741 193.945938,62.424191 
	C193.523254,62.625893 193.100555,62.827595 192.365326,63.230106 
z"/>
<path fill="#000000" opacity="1.000000" stroke="none" 
	d="
M213.998444,60.666664 
	C213.998444,62.357861 213.998444,63.591187 213.998444,65.117233 
	C222.507263,60.593517 222.507263,60.593517 224.037460,62.224594 
	C222.758148,63.147766 221.518204,64.110466 220.212540,64.973770 
	C211.251205,70.899063 209.756317,70.683540 202.130234,62.446983 
	C202.331985,62.016201 202.533722,61.585419 202.735474,61.154633 
	C205.322159,62.366035 207.908844,63.577435 211.001694,65.025887 
	C211.001694,57.900002 210.946213,51.010197 211.061142,44.123238 
	C211.078506,43.082809 211.889755,42.055630 212.333786,41.022324 
	C212.888641,42.110435 213.887817,43.184460 213.922836,44.289055 
	C214.090958,49.591106 213.998413,54.901417 213.998444,60.666664 
z"/>
<path fill="#000000" opacity="1.000000" stroke="none" 
	d="
M243.706818,41.473019 
	C243.959183,49.491173 243.959183,57.109306 243.959183,64.639244 
	C248.045639,65.497337 249.503922,58.562321 254.665207,61.613136 
	C252.833878,63.044277 251.659454,64.091713 250.362396,64.954834 
	C241.329147,70.965874 239.873001,70.756203 232.158157,62.485191 
	C232.341629,62.040558 232.525085,61.595924 232.708557,61.151291 
	C235.304962,62.363407 237.901352,63.575523 241.001602,65.022858 
	C241.001602,58.033127 240.971207,51.277588 241.023727,44.522697 
	C241.036316,42.905273 240.189148,40.482349 243.706818,41.473019 
z"/>
<path fill="#000000" opacity="1.000000" stroke="none" 
	d="
M271.001526,46.155148 
	C271.002106,44.840683 270.771637,43.912991 271.063995,43.199505 
	C271.400574,42.377998 272.199188,41.745811 272.797150,41.031403 
	C273.197083,41.778656 273.935089,42.521732 273.944397,43.273808 
	C274.032562,50.410679 273.996948,57.549080 273.996948,64.635437 
	C277.977325,65.396568 279.486084,58.583687 284.745880,61.736519 
	C282.781921,63.081268 281.391602,64.058052 279.976746,64.997978 
	C271.079102,70.908936 269.963654,70.753998 262.001984,62.340328 
	C266.040100,59.341167 267.389404,65.103951 271.001526,64.759834 
	C271.001526,58.769558 271.001526,52.703072 271.001526,46.155148 
z"/>
<path fill="#000000" opacity="1.000000" stroke="none" 
	d="
M295.086060,66.006050 
	C293.505859,64.860107 292.290466,63.746033 291.075073,62.631958 
	C291.300934,62.136501 291.526794,61.641041 291.752625,61.145584 
	C294.313782,62.364658 296.874908,63.583733 300.001678,65.072052 
	C300.001678,57.928207 299.946686,51.039585 300.060089,44.153732 
	C300.077393,43.103859 300.874359,42.066826 301.310699,41.023853 
	C301.873260,42.106518 302.898590,43.178963 302.922760,44.273525 
	C303.072876,51.068317 302.998352,57.868080 302.998352,64.621010 
	C306.892761,65.630905 308.555939,58.446301 313.785339,61.754768 
	C311.140656,63.548641 309.221893,64.689583 307.482880,66.058739 
	C301.412994,70.837570 301.436584,70.867546 295.086060,66.006050 
z"/>
<path fill="#000000" opacity="1.000000" stroke="none" 
	d="
M342.956299,62.041534 
	C341.609406,63.280418 340.256042,64.126488 338.926514,65.008499 
	C330.053467,70.894913 328.960999,70.747414 320.986450,62.325459 
	C324.989838,59.532410 326.404053,64.976799 330.001648,64.798859 
	C330.001648,57.975651 329.926971,51.102272 330.078857,44.233910 
	C330.102753,43.153137 331.152832,42.095055 331.728394,41.026474 
	C332.151703,42.081493 332.924255,43.130814 332.941589,44.192474 
	C333.052826,50.998177 332.998322,57.806591 332.998322,65.640877 
	C335.434265,63.941986 337.197540,62.402374 339.231537,61.427662 
	C340.211609,60.958000 341.701721,61.552654 342.956299,62.041534 
z"/>
<path fill="#000000" opacity="1.000000" stroke="none" 
	d="
M354.158447,63.026192 
	C355.387299,63.753258 356.231995,64.437424 358.001526,65.870628 
	C358.001526,59.698017 357.821350,54.494823 358.074066,49.312744 
	C358.209778,46.529846 359.089142,43.783218 359.632935,41.020222 
	C360.088135,43.872036 360.816620,46.712254 360.938263,49.578228 
	C361.153168,54.641430 360.998474,59.720318 360.998474,65.027496 
	C369.639374,60.739643 369.639374,60.739643 371.063110,62.180485 
	C369.791718,63.118736 368.570679,64.104568 367.268127,64.967369 
	C358.273682,70.925346 356.808899,70.715057 349.144745,62.466576 
	C349.345490,62.040161 349.546265,61.613743 349.747009,61.187328 
	C351.089447,61.785980 352.431885,62.384632 354.158447,63.026192 
z"/>
<path fill="#000000" opacity="1.000000" stroke="none" 
	d="
M386.070557,68.004692 
	C383.510437,66.290726 381.322815,64.610016 379.078308,62.885632 
	C381.203827,61.166847 381.203827,61.166847 388.001556,65.359070 
	C388.001556,58.232746 387.918823,51.553070 388.072998,44.878864 
	C388.102997,43.580639 389.055115,42.303719 389.581909,41.016968 
	C390.054108,42.358440 390.905029,43.691738 390.934235,45.042786 
	C391.076263,51.616661 390.998444,58.195286 390.998444,64.681137 
	C395.068726,65.394775 396.611664,58.877251 402.232605,61.420040 
	C398.097046,64.280457 394.837097,66.060211 392.191071,68.504532 
	C389.745575,70.763626 388.208038,70.020386 386.070557,68.004692 
z"/>
<path fill="#000000" opacity="1.000000" stroke="none" 
	d="
M417.001526,47.120289 
	C417.442108,44.765324 417.882690,42.894131 418.323273,41.022934 
	C418.881683,42.942810 419.852936,44.848053 419.921570,46.785290 
	C420.132751,52.742886 419.998474,58.712730 419.998474,64.627968 
	C423.985901,65.434448 425.455200,58.516212 430.739380,61.727459 
	C428.268829,63.429958 426.273376,64.650223 424.450653,66.089241 
	C418.196075,71.027237 411.662964,69.058304 408.072937,60.163967 
	C411.338043,62.082573 413.849640,63.558426 417.001526,65.410522 
	C417.001526,59.074039 417.001526,53.339050 417.001526,47.120289 
z"/>
<path fill="#000000" opacity="1.000000" stroke="none" 
	d="
M589.841553,65.334221 
	C588.724548,64.297592 587.849548,63.532448 586.729248,62.552776 
	C591.064453,59.216354 592.368958,65.149734 596.001648,64.748039 
	C596.001648,57.946419 595.947449,51.063671 596.058838,44.183605 
	C596.075989,43.124683 596.854553,42.078083 597.281006,41.025780 
	C597.853455,42.097942 598.897278,43.159573 598.921509,44.243996 
	C599.073547,51.044998 598.998413,57.851074 598.998413,64.612396 
	C602.894043,65.682678 604.541077,58.419483 609.748230,61.725807 
	C607.687317,63.175880 606.185547,63.888233 605.144958,65.023323 
	C600.267639,70.343674 595.303223,70.557030 589.841553,65.334221 
z"/>
<path fill="#000000" opacity="1.000000" stroke="none" 
	d="
M625.001465,61.583302 
	C625.001648,55.304340 624.946838,49.480225 625.060364,43.659397 
	C625.077637,42.773052 625.874695,41.901924 626.311096,41.023773 
	C626.873474,41.942104 627.905212,42.851162 627.923462,43.780220 
	C628.060852,50.743938 627.998291,57.711617 627.998291,64.628464 
	C631.982788,65.429359 633.459839,58.525814 638.742432,61.730473 
	C636.264771,63.436886 634.266541,64.657425 632.442078,66.098038 
	C626.237305,70.997185 619.600525,68.984795 616.109619,60.169441 
	C619.255371,62.036816 621.658447,63.463360 624.479065,65.137749 
	C624.664062,64.040421 624.832764,63.039822 625.001465,61.583302 
z"/>
<path fill="#000000" opacity="1.000000" stroke="none" 
	d="
M124.998444,62.575851 
	C125.041267,63.950359 125.084076,64.873550 125.123077,65.714584 
	C129.077347,66.356911 130.516632,59.536831 135.753433,62.666138 
	C133.812317,64.110260 132.600204,65.102921 131.300903,65.964012 
	C122.280556,71.942108 120.894234,71.746254 113.181709,63.517433 
	C113.374466,63.057720 113.567215,62.598007 113.759972,62.138294 
	C116.313438,63.361961 118.866913,64.585625 122.001686,66.087868 
	C122.001686,58.950058 121.926773,52.076054 122.079750,45.207123 
	C122.103615,44.135529 123.165970,43.087067 123.748108,42.027901 
	C124.164841,43.086945 124.919067,44.138779 124.941864,45.206234 
	C125.062256,50.843498 124.998390,56.484699 124.998444,62.575851 
z"/>
<path fill="#000000" opacity="1.000000" stroke="none" 
	d="
M149.378189,68.772781 
	C147.036392,66.958496 145.012085,65.342651 142.987778,63.726810 
	C143.232880,63.199978 143.477982,62.673145 143.723083,62.146313 
	C146.303284,63.361862 148.883469,64.577415 152.001587,66.046387 
	C152.001587,59.077965 151.936478,52.350254 152.061707,45.626087 
	C152.084213,44.417358 152.891388,43.223240 153.336288,42.022377 
	C153.890335,43.279995 154.892441,44.526718 154.923325,45.797058 
	C155.084366,52.419445 154.998428,59.047840 154.998428,65.624268 
	C158.994354,66.464668 160.439545,59.479053 165.589447,62.635643 
	C162.485947,64.984932 159.740433,66.855873 157.240967,69.012062 
	C154.601547,71.288963 152.199020,71.168961 149.378189,68.772781 
z"/>
<path fill="#000000" opacity="1.000000" stroke="none" 
	d="
M566.001465,46.154472 
	C566.002136,44.840340 565.771667,43.912628 566.064087,43.199181 
	C566.400696,42.377762 567.199402,41.745697 567.797424,41.031403 
	C568.197266,41.778763 568.934326,42.521664 568.944275,43.274181 
	C569.034241,50.077576 568.996948,56.882656 568.996948,63.642437 
	C572.947510,64.293846 574.569702,57.868256 580.039917,60.535892 
	C577.781616,62.081680 576.390930,63.058102 574.976074,63.998062 
	C566.077942,69.909439 564.963623,69.754646 557.222412,61.573074 
	C559.023926,60.349766 559.023926,60.349766 566.001465,64.144150 
	C566.001465,58.103046 566.001465,52.369316 566.001465,46.154472 
z"/>
<path fill="#000000" opacity="1.000000" stroke="none" 
	d="
M538.998535,49.062576 
	C538.998535,54.301807 538.998535,59.052383 538.998535,63.715179 
	C543.048767,64.263412 544.530945,57.510529 549.922729,60.793278 
	C547.626160,62.214680 546.153076,63.100292 544.706543,64.027390 
	C542.151855,65.664795 539.106812,69.136169 537.175720,68.595299 
	C533.394409,67.536179 530.238220,64.245453 526.823303,61.878407 
	C527.132385,61.271385 527.441528,60.664364 527.750671,60.057346 
	C530.254211,61.286522 532.757751,62.515697 536.001465,64.108292 
	C536.001465,57.746475 535.902039,51.554955 536.074463,45.371021 
	C536.115295,43.907017 537.069214,42.468475 537.603027,41.018215 
	C538.068176,42.537315 538.634949,44.035007 538.961182,45.583389 
	C539.162842,46.540359 538.998535,47.574451 538.998535,49.062576 
z"/>
<path fill="#55A8B3" opacity="1.000000" stroke="none" 
	d="
M633.587280,14.095273 
	C633.991699,21.283676 633.971130,28.402996 633.892456,36.046844 
	C632.133240,36.663822 630.432190,36.756271 628.367920,36.776176 
	C628.003845,29.493557 628.002991,22.283476 628.003784,14.616128 
	C629.724365,14.114638 631.443298,14.070414 633.587280,14.095273 
z"/>
<path fill="#D7D7D7" opacity="1.000000" stroke="none" 
	d="
M55.083488,22.967216 
	C58.403702,21.916599 61.983849,21.336540 64.972466,19.685635 
	C68.084351,17.966637 70.135315,19.105154 72.699814,21.150280 
	C72.941093,21.736912 72.912224,21.918644 72.883347,22.100376 
	C71.924210,23.250931 70.898262,24.353476 70.026398,25.566748 
	C69.285995,26.597078 68.723396,27.755184 68.082130,28.856754 
	C67.401718,27.628855 66.647667,26.434002 66.074989,25.157757 
	C65.825226,24.601141 65.947243,23.877697 65.815842,22.060333 
	C63.638386,23.249462 61.888874,24.204885 60.139362,25.160309 
	C61.464203,26.533508 62.789043,27.906706 64.684967,29.871830 
	C62.156086,29.118414 59.591339,32.462570 57.130253,27.958654 
	C56.070786,26.939032 55.413292,26.397539 54.785831,25.652170 
	C54.815868,25.448294 54.824478,25.036173 54.943562,24.704857 
	C55.069592,23.904766 55.076538,23.435989 55.083488,22.967216 
z"/>
<path fill="#4C4C4C" opacity="1.000000" stroke="none" 
	d="
M23.920887,80.339890 
	C22.212973,83.112633 21.262136,81.683548 20.585423,80.021622 
	C19.863134,78.247780 19.372253,76.379715 18.780350,74.552780 
	C18.230421,74.455475 17.680490,74.358170 17.130562,74.260872 
	C16.565626,76.538651 16.000689,78.816437 15.435753,81.094215 
	C15.289145,81.110222 15.142537,81.126228 14.995929,81.142235 
	C14.995929,77.983559 14.995929,74.824883 14.995929,70.879562 
	C17.256062,73.282295 19.342098,75.499954 21.775600,78.086998 
	C21.905588,75.255737 22.024799,72.659233 22.144009,70.062729 
	C22.745867,70.069748 23.347723,70.076775 23.949581,70.083794 
	C23.949581,73.361313 23.949581,76.638824 23.920887,80.339890 
z"/>
<path fill="#B7B7B7" opacity="1.000000" stroke="none" 
	d="
M72.901779,22.541019 
	C72.912224,21.918644 72.941093,21.736912 72.986710,21.279697 
	C77.349014,20.723227 81.707344,20.160299 86.031342,20.355997 
	C87.136650,20.406021 88.133308,22.856676 88.852737,24.634075 
	C87.642807,25.322104 86.760033,25.580446 85.869888,25.488777 
	C84.914536,24.429632 83.966545,23.720495 82.699234,22.997002 
	C81.954498,22.970407 81.529091,22.958170 81.103691,22.945930 
	C74.881050,23.331934 74.579865,23.741943 75.527916,30.536331 
	C72.959381,29.842054 72.959381,29.842054 72.901779,22.541019 
z"/>
<path fill="#5D5D5D" opacity="1.000000" stroke="none" 
	d="
M35.520393,23.749153 
	C36.409634,22.763824 37.298878,21.778498 38.548443,21.053295 
	C39.120457,22.162430 39.332142,23.011435 39.156967,23.929169 
	C34.944469,28.384840 41.174229,26.544977 41.954739,28.475170 
	C42.275208,26.943161 42.595676,25.411152 42.986755,23.673069 
	C43.200726,23.189463 43.209599,22.907709 43.083984,22.621737 
	C43.522629,23.003122 43.961277,23.384508 44.494160,24.306198 
	C44.594963,25.773533 44.601532,26.700563 44.608101,27.627594 
	C42.964401,28.731483 41.245617,29.740942 39.700867,30.969267 
	C38.474468,31.944450 37.461079,33.187523 36.051235,34.617939 
	C35.850544,33.261417 35.691845,32.188728 35.625263,30.229313 
	C35.651718,27.478106 35.586056,25.613630 35.520393,23.749153 
z"/>
<path fill="#CBCBCB" opacity="1.000000" stroke="none" 
	d="
M81.104744,23.334259 
	C81.529091,22.958170 81.954498,22.970407 82.669502,23.363926 
	C83.931824,24.443069 84.904541,25.140930 85.877258,25.838789 
	C86.760033,25.580446 87.642807,25.322104 88.854362,25.031746 
	C89.219925,26.840660 89.256706,28.681593 89.293480,30.522526 
	C87.819397,30.300934 86.350517,30.030563 84.869652,29.872561 
	C83.592445,29.736290 82.301582,29.727947 81.325760,29.243860 
	C81.431152,27.898962 81.227547,26.973249 81.023941,26.047537 
	C81.051231,25.272554 81.078514,24.497570 81.104744,23.334259 
z"/>
<path fill="#424242" opacity="1.000000" stroke="none" 
	d="
M105.915939,91.748337 
	C105.916313,87.983307 105.764305,84.671074 106.008026,81.388222 
	C106.083107,80.376892 107.238335,79.445755 108.525604,77.559860 
	C108.525604,84.608360 108.525604,90.047531 108.525604,95.920448 
	C105.344490,97.217537 105.956207,94.384544 105.915939,91.748337 
z"/>
<path fill="#454545" opacity="1.000000" stroke="none" 
	d="
M725.544006,95.780334 
	C727.611328,92.646507 727.666138,82.349991 725.291870,79.401985 
	C725.614502,79.099983 725.937134,78.797981 726.259766,78.495987 
	C727.107239,79.461349 728.617615,80.382156 728.686035,81.399887 
	C728.964417,85.541115 728.949951,89.722168 728.668579,93.863068 
	C728.615417,94.646332 726.854736,95.313591 725.544006,95.780334 
z"/>
<path fill="#333333" opacity="1.000000" stroke="none" 
	d="
M718.229126,80.269913 
	C719.018127,82.636703 719.489197,85.261040 720.067139,87.861649 
	C720.440674,89.542610 720.970520,91.188843 721.438965,92.881958 
	C720.113281,92.881958 717.987671,92.881958 715.554871,92.881958 
	C719.825928,89.943726 718.230896,86.330688 717.279785,82.731377 
	C717.112244,82.097237 717.711365,81.260551 718.229126,80.269913 
z"/>
<path fill="#B1B1B1" opacity="1.000000" stroke="none" 
	d="
M35.189388,23.847769 
	C35.586056,25.613630 35.651718,27.478106 35.618874,29.800499 
	C32.983860,30.100899 30.447355,29.943384 27.910849,29.785870 
	C27.797920,29.335344 27.684992,28.884821 27.572063,28.434296 
	C29.938030,27.861265 34.032166,29.119680 32.588333,24.509176 
	C33.345016,24.321579 34.101700,24.133982 35.189388,23.847769 
z"/>
<path fill="#E5E5E5" opacity="1.000000" stroke="none" 
	d="
M113.751793,91.208969 
	C110.882256,89.551682 110.893280,83.249290 114.083168,80.376144 
	C114.083168,83.769234 114.083168,86.894539 114.017151,90.532684 
	C113.951126,91.045532 113.751793,91.208969 113.751793,91.208969 
z"/>
<path fill="#EEEEEE" opacity="1.000000" stroke="none" 
	d="
M54.755795,25.856045 
	C55.413292,26.397539 56.070786,26.939032 56.859867,27.780529 
	C56.505032,28.376736 56.018608,28.672937 55.000900,28.796322 
	C52.885872,28.697981 51.302135,28.772461 49.505733,28.634918 
	C48.930595,27.747831 48.568123,27.072767 48.607639,26.302967 
	C50.925014,26.090837 52.840405,25.973440 54.755795,25.856045 
z"/>
<path fill="#E5E5E5" opacity="1.000000" stroke="none" 
	d="
M121.063614,86.778709 
	C120.336540,88.034882 119.624458,88.903481 118.912376,89.772087 
	C118.577171,89.611870 118.241959,89.451645 117.906746,89.291428 
	C118.088066,86.479645 118.269386,83.667862 118.450706,80.856079 
	C118.763725,80.736343 119.076744,80.616608 119.389763,80.496872 
	C119.952713,82.461632 120.515656,84.426384 121.063614,86.778709 
z"/>
<path fill="#D7D7D7" opacity="1.000000" stroke="none" 
	d="
M25.347511,78.555710 
	C25.782084,76.717773 26.351135,75.230270 26.920187,73.742775 
	C27.330257,73.837860 27.740330,73.932953 28.150402,74.028046 
	C28.276211,76.557930 28.402020,79.087822 28.527826,81.617706 
	C28.256351,81.779228 27.984879,81.940758 27.713404,82.102280 
	C26.969599,81.036903 26.225794,79.971535 25.347511,78.555710 
z"/>
<path fill="#D7D7D7" opacity="1.000000" stroke="none" 
	d="
M32.245064,75.667725 
	C32.055294,74.841393 31.912497,74.320770 31.769697,73.800148 
	C32.328274,73.850952 33.081512,73.686195 33.414459,73.986855 
	C35.948181,76.274879 35.092960,79.554108 31.068762,81.821281 
	C31.517347,79.676834 31.904694,77.825142 32.245064,75.667725 
z"/>
<path fill="#3E3E3E" opacity="1.000000" stroke="none" 
	d="
M48.205654,26.397703 
	C48.568123,27.072767 48.930595,27.747831 48.965714,28.756433 
	C48.288723,29.206947 47.939095,29.323923 47.589462,29.440899 
	C47.589462,29.440897 47.242474,29.248577 47.041374,28.780178 
	C46.593426,26.892094 46.346577,25.472406 46.099731,24.052719 
	C47.672993,21.056496 49.814117,19.526724 52.995586,21.620613 
	C52.456100,22.013769 52.151939,22.077600 51.539589,22.111477 
	C50.224102,22.628317 49.216816,23.175110 48.179512,24.167339 
	C48.168217,25.207748 48.186935,25.802727 48.205654,26.397703 
z"/>
<path fill="#B1B1B1" opacity="1.000000" stroke="none" 
	d="
M39.543831,23.860443 
	C39.332142,23.011435 39.120457,22.162430 38.980461,21.046566 
	C40.369530,21.138510 41.686905,21.497307 43.044136,22.238922 
	C43.209599,22.907709 43.200726,23.189463 42.645008,23.721962 
	C41.336376,23.938097 40.440105,23.899269 39.543831,23.860443 
z"/>
<path fill="#7E7E7E" opacity="1.000000" stroke="none" 
	d="
M47.778114,29.767799 
	C47.939095,29.323923 48.288723,29.206947 49.178375,28.968456 
	C51.302135,28.772461 52.885872,28.697981 54.701950,28.807968 
	C53.078510,32.310070 50.538433,31.302216 47.778114,29.767799 
z"/>
<path fill="#F7F7F7" opacity="1.000000" stroke="none" 
	d="
M93.577789,81.970398 
	C92.683968,81.618500 92.161392,81.297646 90.899185,80.522652 
	C93.650444,80.049232 95.576675,79.717781 97.502907,79.386330 
	C97.663879,79.876106 97.824852,80.365891 97.985832,80.855667 
	C96.640228,81.237595 95.294632,81.619522 93.577789,81.970398 
z"/>
<path fill="#6C6C6C" opacity="1.000000" stroke="none" 
	d="
M51.847778,22.141434 
	C52.151939,22.077600 52.456100,22.013769 53.222397,21.883924 
	C54.067417,22.062811 54.450302,22.307711 54.958336,22.759912 
	C55.076538,23.435989 55.069592,23.904766 54.642921,24.680986 
	C53.468712,24.776756 52.714222,24.565081 52.180111,24.185818 
	C52.216251,23.392632 52.032017,22.767033 51.847778,22.141434 
z"/>
<path fill="#D7D7D7" opacity="1.000000" stroke="none" 
	d="
M45.756279,24.048225 
	C46.346577,25.472406 46.593426,26.892094 46.874249,28.673334 
	C46.331360,28.690697 45.754501,28.346504 44.892868,27.814953 
	C44.601532,26.700563 44.594963,25.773533 44.662155,24.503613 
	C44.961552,24.121727 45.187191,24.082729 45.756279,24.048225 
z"/>
<path fill="#F7F7F7" opacity="1.000000" stroke="none" 
	d="
M92.617165,74.665268 
	C92.116074,74.985229 91.741112,75.077469 91.366135,75.169708 
	C91.464943,74.765930 91.563751,74.362144 91.662567,73.958366 
	C92.022804,74.118095 92.383049,74.277817 92.617165,74.665268 
z"/>
<path fill="#F7F7F7" opacity="1.000000" stroke="none" 
	d="
M96.862976,73.276276 
	C97.063026,73.600044 97.036270,73.955658 97.009506,74.311279 
	C96.762062,74.236351 96.514618,74.161415 96.267174,74.086472 
	C96.390175,73.827026 96.513176,73.567581 96.862976,73.276276 
z"/>
<path fill="#1C1C1C" opacity="1.000000" stroke="none" 
	d="
M80.911140,26.412893 
	C81.227547,26.973249 81.431152,27.898962 81.309837,28.929329 
	C80.922722,28.282074 80.860535,27.530163 80.911140,26.412893 
z"/>
<path fill="#FCB26D" opacity="1.000000" stroke="none" 
	d="
M287.326538,36.811829 
	C286.959595,36.725662 286.970978,36.354111 286.980042,36.168259 
	C287.817841,36.094776 288.646606,36.207146 289.704102,36.532722 
	C289.186371,36.796619 288.439941,36.847309 287.326538,36.811829 
z"/>
<path fill="#B1B1B1" opacity="1.000000" stroke="none" 
	d="
M34.002632,19.371704 
	C34.102139,19.368647 34.000271,19.628094 34.000271,19.628094 
	C34.000271,19.628094 33.903122,19.374763 34.002632,19.371704 
z"/>
<path fill="#EF6544" opacity="1.000000" stroke="none" 
	d="
M227.939484,13.825531 
	C227.454483,13.905936 226.970108,13.808642 226.297668,13.546731 
	C226.520416,13.320700 226.931229,13.259285 227.653259,13.245569 
	C227.964508,13.293267 227.940094,13.647832 227.939484,13.825531 
z"/>
<path fill="#E5E5E5" opacity="1.000000" stroke="none" 
	d="
M114.050201,90.963089 
	C114.253723,91.397530 114.358154,91.914406 114.462585,92.431282 
	C114.272659,92.181816 114.082741,91.932358 113.822304,91.445930 
	C113.751793,91.208969 113.951126,91.045532 114.050201,90.963089 
z"/>
<path fill="#AB0F45" opacity="1.000000" stroke="none" 
	d="
M114.980530,14.567576 
	C117.670097,14.092991 120.370911,14.076239 123.531868,14.538414 
	C123.987785,21.992249 123.983551,28.967157 123.979309,35.942066 
	C121.280884,35.955681 118.582458,35.969296 115.433174,35.962273 
	C114.985466,28.969557 114.988617,21.997484 114.980530,14.567576 
z"/>
<path fill="#B31847" opacity="1.000000" stroke="none" 
	d="
M124.430183,35.960274 
	C123.983551,28.967157 123.987785,21.992249 123.979858,14.559726 
	C126.667725,14.085975 129.367752,14.069839 132.529175,14.532822 
	C132.985046,21.988909 132.979507,28.965876 132.973984,35.942844 
	C130.276337,35.954723 127.578697,35.966602 124.430183,35.960274 
z"/>
<path fill="#BB2148" opacity="1.000000" stroke="none" 
	d="
M133.425964,35.960915 
	C132.979507,28.965876 132.985046,21.988909 132.976929,14.553642 
	C133.458786,14.071476 133.954132,14.031822 134.449860,14.026131 
	C140.993408,13.950996 140.994263,13.952192 140.999588,20.325211 
	C141.001938,23.137064 141.000305,25.948923 140.999924,28.760778 
	C140.998947,35.999668 140.998840,35.999668 133.425964,35.960915 
z"/>
<path fill="#565656" opacity="1.000000" stroke="none" 
	d="
M51.959736,24.353405 
	C52.714222,24.565081 53.468712,24.776756 54.523838,25.012302 
	C54.824478,25.036173 54.815868,25.448294 54.785831,25.652168 
	C52.840405,25.973440 50.925014,26.090837 48.607639,26.302967 
	C48.186935,25.802727 48.168217,25.207748 48.540695,24.294302 
	C49.941170,24.101690 50.950455,24.227549 51.959736,24.353405 
z"/>
<path fill="#FEFEFE" opacity="1.000000" stroke="none" 
	d="
M85.869888,25.488777 
	C84.904541,25.140930 83.931824,24.443069 82.988831,23.378284 
	C83.966545,23.720495 84.914536,24.429632 85.869888,25.488777 
z"/>
<path fill="#757575" opacity="1.000000" stroke="none" 
	d="
M39.156967,23.929169 
	C40.440105,23.899269 41.336376,23.938097 42.574398,23.928034 
	C42.595676,25.411152 42.275208,26.943161 41.954739,28.475170 
	C41.174229,26.544977 34.944469,28.384840 39.156967,23.929169 
z"/>
<path fill="#CECECE" opacity="1.000000" stroke="none" 
	d="
M52.180111,24.185818 
	C50.950455,24.227549 49.941170,24.101690 48.570709,23.848869 
	C49.216816,23.175110 50.224102,22.628317 51.539585,22.111477 
	C52.032017,22.767033 52.216251,23.392632 52.180111,24.185818 
z"/>
</svg>